<svg id="Layer_1" data-name="Layer 1" xmlns="http://www.w3.org/2000/svg" viewBox="0 0 2449 1108"><defs><style>.cls-1,.cls-19,.cls-20{fill:none;}.cls-1,.cls-19,.cls-20,.cls-34{stroke:#000;stroke-miterlimit:10;}.cls-2{font-size:45px;}.cls-10,.cls-2,.cls-21,.cls-29{font-family:MyriadPro-Regular, Myriad Pro;}.cls-3{letter-spacing:-0.01em;}.cls-4{letter-spacing:0.03em;}.cls-5{letter-spacing:-0.07em;}.cls-6{letter-spacing:-0.01em;}.cls-7{letter-spacing:-0.01em;}.cls-8{letter-spacing:0em;}.cls-9{letter-spacing:0.03em;}.cls-10{font-size:55px;}.cls-11{letter-spacing:0em;}.cls-12{letter-spacing:-0.01em;}.cls-13{letter-spacing:-0.01em;}.cls-14{letter-spacing:0.02em;}.cls-15{letter-spacing:-0.03em;}.cls-16{letter-spacing:0em;}.cls-17{letter-spacing:-0.01em;}.cls-18{letter-spacing:-0.02em;}.cls-19{stroke-width:4px;}.cls-20{stroke-width:3px;}.cls-21,.cls-29{font-size:28px;}.cls-22{letter-spacing:0em;}.cls-23{letter-spacing:0em;}.cls-24{letter-spacing:-0.01em;}.cls-25{letter-spacing:0.01em;}.cls-26{letter-spacing:-0.01em;}.cls-27{letter-spacing:-0.01em;}.cls-28{letter-spacing:0em;}.cls-29{letter-spacing:-0.02em;}.cls-30{letter-spacing:0.02em;}.cls-31{letter-spacing:-0.01em;}.cls-32{letter-spacing:0em;}.cls-33{letter-spacing:0.01em;}.cls-34{fill:#fff;}.cls-35{letter-spacing:0em;}.cls-36{letter-spacing:0.01em;}.cls-37{letter-spacing:-0.02em;}</style></defs><title>Weave Cloud 1</title><rect class="cls-1" x="144.5" y="504.5" width="432" height="459"/><text class="cls-2" transform="translate(189.5 549.5)">de<tspan class="cls-3" x="47.92" y="0">v</tspan><tspan x="69.12" y="0">elope</tspan><tspan class="cls-4" x="175.14" y="0">r</tspan><tspan class="cls-5" x="191.2" y="0">’</tspan><tspan x="197.28" y="0">s lap</tspan><tspan class="cls-6" x="282.55" y="0">t</tspan><tspan x="297.17" y="0">op</tspan></text><rect class="cls-1" x="648.5" y="486.5" width="1386" height="252" rx="31.06" ry="31.06"/><text class="cls-2" transform="translate(693.5 549.5)"><tspan class="cls-7">c</tspan><tspan x="19.89" y="0">o</tspan><tspan class="cls-8" x="44.59" y="0">n</tspan><tspan x="69.39" y="0">tinuous deli</tspan><tspan class="cls-3" x="290.52" y="0">v</tspan><tspan x="311.71" y="0">e</tspan><tspan class="cls-9" x="334.26" y="0">r</tspan><tspan x="350.1" y="0">y pipeline</tspan></text><rect class="cls-1" x="693.5" y="612.5" width="81" height="72"/><text class="cls-10" transform="translate(711.5 666.5)">CI</text><rect class="cls-1" x="900.5" y="963.5" width="270" height="144" rx="37.21" ry="37.21"/><rect class="cls-1" x="846.5" y="612.5" width="396" height="72"/><text class="cls-10" transform="translate(869 666.5)"><tspan class="cls-11">D</tspan><tspan x="36.85" y="0">ocker </tspan><tspan class="cls-12" x="174.68" y="0">r</tspan><tspan x="192.11" y="0">e</tspan><tspan class="cls-13" x="219.67" y="0">g</tspan><tspan x="250.08" y="0">ist</tspan><tspan class="cls-14" x="302.94" y="0">r</tspan><tspan x="322.29" y="0">y</tspan></text><text class="cls-10" transform="translate(1337.6 576.5)"><tspan class="cls-15">W</tspan><tspan class="cls-16" x="44.72" y="0">e</tspan><tspan class="cls-17" x="72.27" y="0">a</tspan><tspan class="cls-12" x="98.34" y="0">v</tspan><tspan x="124.24" y="0">e</tspan><tspan class="cls-18" x="28.6" y="66">F</tspan><tspan x="54.45" y="66">lux</tspan></text><path class="cls-1" d="M72,432V72H1629V432m-284.21,0V936H1629V432M72,432H1344.79" transform="translate(-71.5 -71.5)"/><rect class="cls-1" x="1323.5" y="513.5" width="189" height="171"/><line class="cls-19" x1="405.5" y1="828.5" x2="895.48" y2="983.23"/><path d="M990,1062c-12.1.6-27.71,3.21-38.33,7.84L964,1053.78l-.83-20.21C969.16,1043.46,980.44,1054.56,990,1062Z" transform="translate(-71.5 -71.5)"/><line class="cls-19" x1="754.44" y1="702.63" x2="999.5" y2="981.5"/><path d="M810,756c4.33,11.31,8.23,26.65,8.28,38.24L828,776.51l18.83-7.39C835.37,767.59,820.66,761.75,810,756Z" transform="translate(-71.5 -71.5)"/><line class="cls-19" x1="1071.49" y1="965.4" x2="1395.5" y2="675.5"/><path d="M1125,1053c11.28-4.43,26.57-8.47,38.16-8.62l-17.81-9.59L1137.8,1016C1136.37,1027.53,1130.66,1042.29,1125,1053Z" transform="translate(-71.5 -71.5)"/><line class="cls-20" x1="1242.5" y1="648.5" x2="1323.39" y2="648.5"/><path d="M1413,720c-8.52,3.16-19.09,8.55-25.64,14.27l5.16-14.27-5.16-14.26C1393.91,711.45,1404.48,716.84,1413,720Z" transform="translate(-71.5 -71.5)"/><line class="cls-20" x1="774.5" y1="648.5" x2="846.39" y2="648.5"/><path d="M936,720c-8.52,3.16-19.09,8.55-25.64,14.27L915.52,720l-5.16-14.26C916.91,711.45,927.48,716.84,936,720Z" transform="translate(-71.5 -71.5)"/><text class="cls-10" transform="translate(990.5 1053.5)">VCS</text><rect class="cls-1" x="216.5" y="576.5" width="216" height="63"/><text class="cls-21" transform="translate(234.5 621.5)"><tspan class="cls-22">D</tspan><tspan class="cls-23" x="18.76" y="0">ocker </tspan><tspan class="cls-24" x="88.93" y="0">f</tspan><tspan x="96.74" y="0">or </tspan><tspan class="cls-25" x="127.2" y="0">M</tspan><tspan x="149.88" y="0">ac</tspan></text><rect class="cls-1" x="216.5" y="648.5" width="216" height="63"/><text class="cls-21" transform="translate(234.5 693.5)"><tspan class="cls-25">S</tspan><tspan class="cls-26" x="13.97" y="0">c</tspan><tspan x="26.35" y="0">ope p</tspan><tspan class="cls-27" x="93.55" y="0">r</tspan><tspan x="102.42" y="0">obe</tspan></text><rect class="cls-1" x="216.5" y="797" width="216" height="63"/><text class="cls-21" transform="translate(234.5 842)"><tspan class="cls-28">A</tspan><tspan x="17.05" y="0">pp </tspan><tspan class="cls-26" x="54.85" y="0">c</tspan><tspan x="67.23" y="0">ode</tspan></text><rect class="cls-1" x="216.5" y="873.5" width="216" height="63"/><text class="cls-29" transform="translate(234.5 923)">P<tspan class="cls-23" x="14.2" y="0">oli</tspan><tspan class="cls-30" x="42.73" y="0">c</tspan><tspan class="cls-23" x="55.78" y="0">y spec</tspan></text><line class="cls-19" x1="405.5" y1="909.5" x2="895.37" y2="1055.6"/><path d="M990,1134c-12.09.79-27.65,3.66-38.2,8.46l12-16.26L962.67,1106C968.87,1115.8,980.32,1126.72,990,1134Z" transform="translate(-71.5 -71.5)"/><text class="cls-10" transform="translate(1602.5 54.5)"><tspan class="cls-31">K</tspan><tspan x="29.48" y="0">ube</tspan><tspan class="cls-11" x="118.63" y="0">r</tspan><tspan x="136.84" y="0">ne</tspan><tspan class="cls-31" x="194.92" y="0">t</tspan><tspan class="cls-16" x="212.79" y="0">es</tspan></text><rect class="cls-1" x="1584.5" y="0.5" width="864" height="864"/><text class="cls-10" transform="translate(18.5 54.5)"><tspan class="cls-15">W</tspan><tspan class="cls-16" x="44.72" y="0">e</tspan><tspan class="cls-17" x="72.27" y="0">a</tspan><tspan class="cls-12" x="98.34" y="0">v</tspan><tspan x="124.24" y="0">e Cloud</tspan></text><text class="cls-10" transform="translate(1689.47 576.5)"><tspan class="cls-15">W</tspan><tspan class="cls-16" x="44.72" y="0">e</tspan><tspan class="cls-17" x="72.27" y="0">a</tspan><tspan class="cls-12" x="98.34" y="0">v</tspan><tspan x="124.24" y="0">e </tspan><tspan class="cls-18" x="163.46" y="0">F</tspan><tspan x="189.31" y="0">lux</tspan><tspan x="62.37" y="66">age</tspan><tspan class="cls-32" x="147.18" y="66">n</tspan><tspan x="177.48" y="66">t</tspan></text><rect class="cls-1" x="1656.5" y="522.5" width="333" height="162"/><text class="cls-10" transform="translate(1675.37 351.5)"><tspan class="cls-15">W</tspan><tspan class="cls-16" x="44.72" y="0">e</tspan><tspan class="cls-17" x="72.27" y="0">a</tspan><tspan class="cls-12" x="98.34" y="0">v</tspan><tspan x="124.24" y="0">e </tspan><tspan class="cls-33" x="163.46" y="0">S</tspan><tspan class="cls-31" x="190.9" y="0">c</tspan><tspan x="215.21" y="0">ope</tspan><tspan x="83.24" y="66">p</tspan><tspan class="cls-12" x="114.54" y="66">r</tspan><tspan x="131.97" y="66">obe</tspan></text><rect class="cls-1" x="1656.5" y="288.5" width="333" height="171"/><text class="cls-10" transform="translate(2055.8 342.5)"><tspan class="cls-15">W</tspan><tspan class="cls-16" x="44.72" y="0">e</tspan><tspan class="cls-17" x="72.27" y="0">a</tspan><tspan class="cls-12" x="98.34" y="0">v</tspan><tspan x="124.24" y="0">e Net</tspan></text><rect class="cls-1" x="2007.5" y="288.5" width="333" height="81"/><rect class="cls-1" x="2007.5" y="378.5" width="333" height="81"/><text class="cls-10" transform="translate(2048.1 432.5)"><tspan class="cls-15">W</tspan><tspan class="cls-16" x="44.72" y="0">e</tspan><tspan class="cls-17" x="72.27" y="0">a</tspan><tspan class="cls-12" x="98.34" y="0">v</tspan><tspan x="124.24" y="0">e NPC</tspan></text><rect class="cls-34" x="2124.5" y="513.5" width="216" height="144"/><rect class="cls-34" x="2133.5" y="522.5" width="216" height="144"/><rect class="cls-34" x="2142.5" y="531.5" width="216" height="144"/><rect class="cls-34" x="2151.5" y="540.5" width="216" height="144"/><rect class="cls-34" x="2160.5" y="549.5" width="216" height="144"/><rect class="cls-34" x="2169.5" y="558.5" width="216" height="144"/><text class="cls-10" transform="translate(2232.5 648.5)"><tspan class="cls-35">A</tspan><tspan x="33.5" y="0">pp</tspan></text><line class="cls-20" x1="1512.5" y1="648.5" x2="1647.39" y2="648.5"/><path d="M1737,720c-8.52,3.16-19.09,8.55-25.64,14.27l5.16-14.27-5.16-14.26C1717.91,711.45,1728.48,716.84,1737,720Z" transform="translate(-71.5 -71.5)"/><text class="cls-10" transform="translate(469.1 158)"><tspan class="cls-15">W</tspan><tspan class="cls-16" x="44.72" y="0">e</tspan><tspan class="cls-17" x="72.27" y="0">a</tspan><tspan class="cls-12" x="98.34" y="0">v</tspan><tspan x="124.24" y="0">e</tspan><tspan class="cls-36" x="5.5" y="66">S</tspan><tspan class="cls-31" x="32.95" y="66">c</tspan><tspan x="57.26" y="66">ope</tspan></text><rect class="cls-1" x="455" y="95" width="189" height="171"/><text class="cls-10" transform="translate(973.1 158)"><tspan class="cls-15">W</tspan><tspan class="cls-16" x="44.72" y="0">e</tspan><tspan class="cls-17" x="72.27" y="0">a</tspan><tspan class="cls-12" x="98.34" y="0">v</tspan><tspan x="124.24" y="0">e</tspan><tspan class="cls-37" x="12.35" y="66">P</tspan><tspan class="cls-11" x="40.73" y="66">r</tspan><tspan x="58.93" y="66">ism</tspan></text><rect class="cls-1" x="959" y="95" width="189" height="171"/><line class="cls-19" x1="508.11" y1="276.03" x2="414.5" y2="684.5"/><path d="M585,324c-6.65,10.13-16.8,22.26-26.18,29.08l20.08-2.46,17,11C590.43,351.36,586.57,336,585,324Z" transform="translate(-71.5 -71.5)"/><line class="cls-19" x1="645.39" y1="246.97" x2="1674.5" y2="396.5"/><path d="M693,315c10.64,5.8,23.55,14.95,31.1,23.74L720,318.93l9.54-17.83C719.83,307.38,704.85,312.47,693,315Z" transform="translate(-71.5 -71.5)"/><line class="cls-19" x1="1148.5" y1="250.84" x2="2196.5" y2="585.5"/><path d="M1197,315c9.54,7.47,20.78,18.61,26.78,28.52l-.77-20.22,12.34-16C1224.72,311.88,1209.1,314.44,1197,315Z" transform="translate(-71.5 -71.5)"/></svg>