<svg id="Layer_1" data-name="Layer 1" xmlns="http://www.w3.org/2000/svg" viewBox="0 0 2296 1180"><defs><style>.cls-1{fill:#fff;}.cls-1,.cls-2,.cls-3,.cls-4{stroke:#000;stroke-miterlimit:10;}.cls-2,.cls-3,.cls-4{fill:none;}.cls-3{stroke-width:4px;}.cls-4{stroke-width:3px;}</style></defs><title>diagram</title><g id="ContainerOrchestrator"><rect class="cls-1" x="1458.5" y="774.5" width="612" height="90"/><path d="M1733.34,907.79a23.75,23.75,0,0,1-9.79,1.76c-10.45,0-18.31-6.6-18.31-18.75,0-11.6,7.86-19.47,19.36-19.47a19.88,19.88,0,0,1,8.8,1.65l-1.15,3.91a17.41,17.41,0,0,0-7.48-1.54c-8.69,0-14.46,5.55-14.46,15.29,0,9.07,5.22,14.9,14.24,14.9a19.15,19.15,0,0,0,7.81-1.54Z" transform="translate(-197.5 -71.5)"/><path d="M1762.65,895.47c0,9.84-6.82,14.13-13.25,14.13-7.21,0-12.76-5.28-12.76-13.69,0-8.91,5.83-14.13,13.2-14.13C1757.48,881.78,1762.65,887.33,1762.65,895.47Zm-21.12.28c0,5.83,3.36,10.23,8.08,10.23s8.08-4.34,8.08-10.34c0-4.51-2.25-10.23-8-10.23S1741.53,890.69,1741.53,895.75Z" transform="translate(-197.5 -71.5)"/><path d="M1768.76,889.59c0-2.75-.06-5-.22-7.2h4.29l.28,4.4h.11a9.79,9.79,0,0,1,8.8-5c3.69,0,9.4,2.2,9.4,11.33V909h-4.84V893.66c0-4.29-1.59-7.86-6.16-7.86a6.88,6.88,0,0,0-6.49,4.95,7,7,0,0,0-.33,2.25v16h-4.84Z" transform="translate(-197.5 -71.5)"/><path d="M1804.89,874.74v7.64h6.93v3.68h-6.93v14.35c0,3.3.94,5.17,3.63,5.17a10.76,10.76,0,0,0,2.8-.33l.22,3.63a11.83,11.83,0,0,1-4.29.66,6.71,6.71,0,0,1-5.22-2c-1.37-1.43-1.87-3.79-1.87-6.93V886.07H1796v-3.68h4.13V876Z" transform="translate(-197.5 -71.5)"/><path d="M1832,909l-.38-3.35h-.16a9.91,9.91,0,0,1-8.14,4c-5.39,0-8.14-3.79-8.14-7.64,0-6.43,5.72-10,16-9.9v-.55c0-2.2-.61-6.16-6-6.16a13.26,13.26,0,0,0-6.93,2l-1.1-3.19a16.52,16.52,0,0,1,8.74-2.37c8.14,0,10.12,5.55,10.12,10.89v10a37.46,37.46,0,0,0,.44,6.38Zm-.71-13.58c-5.28-.11-11.27.83-11.27,6a4.28,4.28,0,0,0,4.56,4.62,6.62,6.62,0,0,0,6.43-4.45,5,5,0,0,0,.27-1.54Z" transform="translate(-197.5 -71.5)"/><path d="M1849.17,874.9a3,3,0,0,1-6,0,3,3,0,0,1,3-3A2.87,2.87,0,0,1,1849.17,874.9Zm-5.39,34.1V882.38h4.84V909Z" transform="translate(-197.5 -71.5)"/><path d="M1856.65,889.59c0-2.75-.06-5-.22-7.2h4.29l.28,4.4h.11a9.79,9.79,0,0,1,8.8-5c3.69,0,9.4,2.2,9.4,11.33V909h-4.84V893.66c0-4.29-1.59-7.86-6.16-7.86a6.88,6.88,0,0,0-6.49,4.95,7,7,0,0,0-.33,2.25v16h-4.84Z" transform="translate(-197.5 -71.5)"/><path d="M1889.87,896.57c.11,6.54,4.29,9.24,9.13,9.24a17.5,17.5,0,0,0,7.37-1.37l.82,3.46a21.56,21.56,0,0,1-8.85,1.65c-8.19,0-13.09-5.39-13.09-13.42s4.73-14.35,12.48-14.35c8.69,0,11,7.64,11,12.54a18.25,18.25,0,0,1-.17,2.25Zm14.19-3.46c.05-3.08-1.26-7.86-6.71-7.86-4.89,0-7,4.51-7.42,7.86Z" transform="translate(-197.5 -71.5)"/><path d="M1914.73,890.69c0-3.13-.05-5.83-.22-8.3h4.23l.17,5.22h.22c1.21-3.57,4.12-5.83,7.37-5.83a5.26,5.26,0,0,1,1.38.17v4.56a7.3,7.3,0,0,0-1.65-.17c-3.41,0-5.83,2.58-6.49,6.21a13.57,13.57,0,0,0-.22,2.25V909h-4.79Z" transform="translate(-197.5 -71.5)"/><path d="M1968.46,895.47c0,9.84-6.82,14.13-13.25,14.13-7.2,0-12.76-5.28-12.76-13.69,0-8.91,5.83-14.13,13.2-14.13C1963.29,881.78,1968.46,887.33,1968.46,895.47Zm-21.12.28c0,5.83,3.35,10.23,8.08,10.23s8.08-4.34,8.08-10.34c0-4.51-2.25-10.23-8-10.23S1947.34,890.69,1947.34,895.75Z" transform="translate(-197.5 -71.5)"/><path d="M1974.57,890.69c0-3.13-.05-5.83-.22-8.3h4.23l.17,5.22h.22c1.21-3.57,4.12-5.83,7.37-5.83a5.25,5.25,0,0,1,1.38.17v4.56a7.29,7.29,0,0,0-1.65-.17c-3.41,0-5.83,2.58-6.49,6.21a13.68,13.68,0,0,0-.22,2.25V909h-4.78Z" transform="translate(-197.5 -71.5)"/><path d="M2011,908a17.82,17.82,0,0,1-7.64,1.54c-8,0-13.25-5.44-13.25-13.58s5.61-14.13,14.3-14.13a16.19,16.19,0,0,1,6.71,1.37l-1.1,3.74a11.22,11.22,0,0,0-5.61-1.26c-6.1,0-9.4,4.51-9.4,10.06,0,6.16,4,10,9.24,10a13.76,13.76,0,0,0,5.94-1.32Z" transform="translate(-197.5 -71.5)"/><path d="M2016.64,870h4.84v16.61h.11a9,9,0,0,1,3.46-3.41,10,10,0,0,1,4.95-1.37c3.57,0,9.29,2.2,9.29,11.38V909h-4.84V893.71c0-4.29-1.6-7.92-6.16-7.92a7,7,0,0,0-6.49,4.84,5.85,5.85,0,0,0-.33,2.31V909h-4.84Z" transform="translate(-197.5 -71.5)"/><path d="M2049.86,896.57c.11,6.54,4.29,9.24,9.13,9.24a17.51,17.51,0,0,0,7.37-1.37l.83,3.46a21.57,21.57,0,0,1-8.85,1.65c-8.19,0-13.09-5.39-13.09-13.42s4.73-14.35,12.48-14.35c8.69,0,11,7.64,11,12.54a18.33,18.33,0,0,1-.16,2.25Zm14.19-3.46c.05-3.08-1.27-7.86-6.71-7.86-4.89,0-7,4.51-7.42,7.86Z" transform="translate(-197.5 -71.5)"/><path d="M2074.06,904.05a12.68,12.68,0,0,0,6.38,1.92c3.52,0,5.17-1.76,5.17-4s-1.37-3.57-4.95-4.89c-4.78-1.7-7-4.34-7-7.53,0-4.29,3.46-7.81,9.18-7.81a13.28,13.28,0,0,1,6.54,1.65l-1.21,3.52a10.36,10.36,0,0,0-5.45-1.54c-2.86,0-4.45,1.65-4.45,3.63,0,2.2,1.59,3.19,5.06,4.51,4.62,1.76,7,4.07,7,8,0,4.67-3.63,8-10,8a15.19,15.19,0,0,1-7.48-1.81Z" transform="translate(-197.5 -71.5)"/><path d="M2102.33,874.74v7.64h6.93v3.68h-6.93v14.35c0,3.3.93,5.17,3.63,5.17a10.77,10.77,0,0,0,2.8-.33l.22,3.63a11.83,11.83,0,0,1-4.29.66,6.71,6.71,0,0,1-5.22-2c-1.37-1.43-1.87-3.79-1.87-6.93V886.07h-4.12v-3.68h4.13V876Z" transform="translate(-197.5 -71.5)"/><path d="M2114.71,890.69c0-3.13-.06-5.83-.22-8.3h4.23l.17,5.22h.22c1.21-3.57,4.13-5.83,7.37-5.83a5.25,5.25,0,0,1,1.38.17v4.56a7.31,7.31,0,0,0-1.65-.17c-3.41,0-5.83,2.58-6.49,6.21a13.57,13.57,0,0,0-.22,2.25V909h-4.78Z" transform="translate(-197.5 -71.5)"/><path d="M2147.15,909l-.38-3.35h-.16a9.91,9.91,0,0,1-8.14,4c-5.39,0-8.14-3.79-8.14-7.64,0-6.43,5.72-10,16-9.9v-.55c0-2.2-.61-6.16-6-6.16a13.26,13.26,0,0,0-6.93,2l-1.1-3.19a16.52,16.52,0,0,1,8.74-2.37c8.14,0,10.12,5.55,10.12,10.89v10a37.46,37.46,0,0,0,.44,6.38Zm-.71-13.58c-5.28-.11-11.27.83-11.27,6a4.28,4.28,0,0,0,4.56,4.62,6.62,6.62,0,0,0,6.43-4.45,5,5,0,0,0,.27-1.54Z" transform="translate(-197.5 -71.5)"/><path d="M2164.53,874.74v7.64h6.93v3.68h-6.93v14.35c0,3.3.93,5.17,3.63,5.17a10.77,10.77,0,0,0,2.8-.33l.22,3.63a11.83,11.83,0,0,1-4.29.66,6.71,6.71,0,0,1-5.22-2c-1.37-1.43-1.87-3.79-1.87-6.93V886.07h-4.12v-3.68h4.13V876Z" transform="translate(-197.5 -71.5)"/><path d="M2200.67,895.47c0,9.84-6.82,14.13-13.25,14.13-7.2,0-12.76-5.28-12.76-13.69,0-8.91,5.83-14.13,13.2-14.13C2195.5,881.78,2200.67,887.33,2200.67,895.47Zm-21.12.28c0,5.83,3.35,10.23,8.08,10.23s8.08-4.34,8.08-10.34c0-4.51-2.25-10.23-8-10.23S2179.55,890.69,2179.55,895.75Z" transform="translate(-197.5 -71.5)"/><path d="M2206.77,890.69c0-3.13-.06-5.83-.22-8.3h4.23l.16,5.22h.22c1.21-3.57,4.12-5.83,7.37-5.83a5.26,5.26,0,0,1,1.38.17v4.56a7.32,7.32,0,0,0-1.65-.17c-3.41,0-5.83,2.58-6.49,6.21a13.57,13.57,0,0,0-.22,2.25V909h-4.78Z" transform="translate(-197.5 -71.5)"/></g><g id="VCS"><rect class="cls-1" x="774.5" y="891.5" width="270" height="288" rx="37.21" ry="37.21"/><path d="M998.61,1026l-8.46-25.91h3.61l4,12.76c1.11,3.5,2.08,6.65,2.77,9.69h.08c.73-3,1.81-6.27,3-9.65l4.38-12.8h3.57L1002.3,1026Z" transform="translate(-197.5 -71.5)"/><path d="M1014.87,1017.31c.08,4.57,3,6.46,6.38,6.46a12.23,12.23,0,0,0,5.15-1l.58,2.42a15.07,15.07,0,0,1-6.19,1.15c-5.73,0-9.15-3.77-9.15-9.38s3.31-10,8.73-10c6.07,0,7.69,5.34,7.69,8.76a12.73,12.73,0,0,1-.12,1.58Zm9.92-2.42c0-2.15-.88-5.5-4.69-5.5-3.42,0-4.92,3.15-5.19,5.5Z" transform="translate(-197.5 -71.5)"/><path d="M1032.25,1013.2c0-2.19,0-4.07-.15-5.8h3l.12,3.65h.15a5.58,5.58,0,0,1,5.15-4.07,3.65,3.65,0,0,1,1,.12v3.19a5.06,5.06,0,0,0-1.15-.12c-2.38,0-4.07,1.81-4.54,4.34a9.48,9.48,0,0,0-.15,1.58V1026h-3.34Z" transform="translate(-197.5 -71.5)"/><path d="M1044.35,1022.54a8.87,8.87,0,0,0,4.46,1.34c2.46,0,3.61-1.23,3.61-2.77s-1-2.5-3.46-3.42c-3.34-1.19-4.92-3-4.92-5.27,0-3,2.42-5.46,6.42-5.46a9.28,9.28,0,0,1,4.57,1.15l-.85,2.46a7.24,7.24,0,0,0-3.81-1.08c-2,0-3.11,1.15-3.11,2.54,0,1.54,1.11,2.23,3.54,3.15,3.23,1.23,4.88,2.84,4.88,5.61,0,3.27-2.54,5.57-7,5.57a10.61,10.61,0,0,1-5.23-1.27Z" transform="translate(-197.5 -71.5)"/><path d="M1063.81,1002.17a2.09,2.09,0,0,1-4.19,0,2.06,2.06,0,0,1,2.11-2.11A2,2,0,0,1,1063.81,1002.17ZM1060,1026v-18.6h3.38V1026Z" transform="translate(-197.5 -71.5)"/><path d="M1085.87,1016.54c0,6.88-4.77,9.88-9.26,9.88-5,0-8.92-3.69-8.92-9.57,0-6.23,4.07-9.88,9.23-9.88C1082.26,1007,1085.87,1010.86,1085.87,1016.54Zm-14.76.19c0,4.07,2.34,7.15,5.65,7.15s5.65-3,5.65-7.23c0-3.15-1.58-7.15-5.57-7.15S1071.11,1013.2,1071.11,1016.74Z" transform="translate(-197.5 -71.5)"/><path d="M1090.14,1012.43c0-1.92,0-3.5-.15-5h3l.19,3.08h.08a6.84,6.84,0,0,1,6.15-3.5c2.58,0,6.57,1.54,6.57,7.92V1026h-3.38v-10.72c0-3-1.11-5.5-4.3-5.5a4.81,4.81,0,0,0-4.54,3.46,4.86,4.86,0,0,0-.23,1.58V1026h-3.38Z" transform="translate(-197.5 -71.5)"/><path d="M1132.88,1025.31a12.46,12.46,0,0,1-5.34,1.08c-5.61,0-9.26-3.81-9.26-9.49s3.92-9.88,10-9.88a11.31,11.31,0,0,1,4.69,1l-.77,2.61a7.85,7.85,0,0,0-3.92-.88c-4.27,0-6.57,3.15-6.57,7,0,4.31,2.77,7,6.46,7a9.61,9.61,0,0,0,4.15-.92Z" transform="translate(-197.5 -71.5)"/><path d="M1153.45,1016.54c0,6.88-4.77,9.88-9.26,9.88-5,0-8.92-3.69-8.92-9.57,0-6.23,4.07-9.88,9.23-9.88C1149.83,1007,1153.45,1010.86,1153.45,1016.54Zm-14.76.19c0,4.07,2.34,7.15,5.65,7.15s5.65-3,5.65-7.23c0-3.15-1.58-7.15-5.57-7.15S1138.69,1013.2,1138.69,1016.74Z" transform="translate(-197.5 -71.5)"/><path d="M1157.71,1012.43c0-1.92,0-3.5-.15-5h3l.19,3.08h.08a6.84,6.84,0,0,1,6.15-3.5c2.58,0,6.57,1.54,6.57,7.92V1026h-3.38v-10.72c0-3-1.11-5.5-4.3-5.5a4.81,4.81,0,0,0-4.54,3.46,4.86,4.86,0,0,0-.23,1.58V1026h-3.38Z" transform="translate(-197.5 -71.5)"/><path d="M1183,1002.05v5.34h4.84V1010H1183v10c0,2.31.65,3.61,2.54,3.61a7.53,7.53,0,0,0,2-.23l.15,2.54a8.27,8.27,0,0,1-3,.46A4.69,4.69,0,0,1,1181,1025c-1-1-1.31-2.65-1.31-4.84V1010h-2.88v-2.58h2.88v-4.46Z" transform="translate(-197.5 -71.5)"/><path d="M1191.62,1013.2c0-2.19,0-4.07-.15-5.8h3l.12,3.65h.15a5.58,5.58,0,0,1,5.15-4.07,3.65,3.65,0,0,1,1,.12v3.19a5.06,5.06,0,0,0-1.15-.12c-2.38,0-4.07,1.81-4.54,4.34a9.48,9.48,0,0,0-.15,1.58V1026h-3.34Z" transform="translate(-197.5 -71.5)"/><path d="M1220.64,1016.54c0,6.88-4.77,9.88-9.26,9.88-5,0-8.92-3.69-8.92-9.57,0-6.23,4.07-9.88,9.23-9.88C1217,1007,1220.64,1010.86,1220.64,1016.54Zm-14.76.19c0,4.07,2.34,7.15,5.65,7.15s5.65-3,5.65-7.23c0-3.15-1.58-7.15-5.57-7.15S1205.88,1013.2,1205.88,1016.74Z" transform="translate(-197.5 -71.5)"/><path d="M1224.91,998.71h3.38V1026h-3.38Z" transform="translate(-197.5 -71.5)"/></g><g id="Dev"><rect class="cls-2" x="0.5" y="531.5" width="432" height="459"/><path d="M256.09,967.05v26.32c0,1.94,0,4.14.18,5.63h-3.55l-.18-3.78h-.09A8.06,8.06,0,0,1,245,999.5c-5.26,0-9.31-4.46-9.31-11.07,0-7.25,4.45-11.7,9.76-11.7,3.33,0,5.58,1.57,6.57,3.33h.09v-13Zm-4,19a7,7,0,0,0-.18-1.67,5.82,5.82,0,0,0-5.71-4.59c-4.09,0-6.52,3.6-6.52,8.42,0,4.41,2.16,8.05,6.43,8.05a6,6,0,0,0,5.8-4.73,6.87,6.87,0,0,0,.18-1.71Z" transform="translate(-197.5 -71.5)"/><path d="M264.87,988.83c.09,5.36,3.51,7.56,7.47,7.56a14.34,14.34,0,0,0,6-1.12l.67,2.83a17.62,17.62,0,0,1-7.24,1.35c-6.7,0-10.71-4.41-10.71-11s3.87-11.74,10.21-11.74c7.11,0,9,6.25,9,10.26a14.93,14.93,0,0,1-.14,1.84ZM276.48,986c0-2.52-1-6.44-5.49-6.44-4,0-5.76,3.69-6.07,6.44Z" transform="translate(-197.5 -71.5)"/><path d="M286.74,977.22,291,989.46a56.09,56.09,0,0,1,1.75,5.58h.13c.5-1.8,1.13-3.6,1.85-5.58L299,977.22h4.14L294.57,999h-3.78l-8.28-21.78Z" transform="translate(-197.5 -71.5)"/><path d="M308.61,988.83c.09,5.36,3.51,7.56,7.47,7.56a14.34,14.34,0,0,0,6-1.12l.67,2.83a17.62,17.62,0,0,1-7.24,1.35c-6.7,0-10.71-4.41-10.71-11s3.87-11.74,10.21-11.74c7.11,0,9,6.25,9,10.26a14.93,14.93,0,0,1-.14,1.84ZM320.22,986c0-2.52-1-6.44-5.49-6.44-4,0-5.76,3.69-6.07,6.44Z" transform="translate(-197.5 -71.5)"/><path d="M328.95,967.05h4V999h-4Z" transform="translate(-197.5 -71.5)"/><path d="M359.28,987.93c0,8.05-5.58,11.56-10.84,11.56-5.89,0-10.44-4.32-10.44-11.2,0-7.29,4.77-11.56,10.8-11.56C355,976.73,359.28,981.27,359.28,987.93Zm-17.28.22c0,4.77,2.74,8.37,6.61,8.37s6.61-3.55,6.61-8.46c0-3.69-1.85-8.37-6.52-8.37S342,984,342,988.16Z" transform="translate(-197.5 -71.5)"/><path d="M364.27,984.33c0-2.79-.09-5-.18-7.11h3.55l.18,3.73h.09a8.56,8.56,0,0,1,7.74-4.23c5.26,0,9.22,4.45,9.22,11.07,0,7.83-4.77,11.7-9.9,11.7a7.64,7.64,0,0,1-6.71-3.42h-.09v11.83h-3.92Zm3.92,5.8a8.9,8.9,0,0,0,.18,1.62,6.11,6.11,0,0,0,5.94,4.63c4.19,0,6.61-3.42,6.61-8.42,0-4.36-2.29-8.1-6.48-8.1a6.32,6.32,0,0,0-6,4.91,6.4,6.4,0,0,0-.27,1.62Z" transform="translate(-197.5 -71.5)"/><path d="M392.08,988.83c.09,5.36,3.51,7.56,7.47,7.56a14.34,14.34,0,0,0,6-1.12l.67,2.83a17.62,17.62,0,0,1-7.24,1.35c-6.7,0-10.71-4.41-10.71-11s3.87-11.74,10.21-11.74c7.11,0,9,6.25,9,10.26a14.93,14.93,0,0,1-.14,1.84ZM403.69,986c0-2.52-1-6.44-5.49-6.44-4,0-5.76,3.69-6.07,6.44Z" transform="translate(-197.5 -71.5)"/><path d="M412.42,984c0-2.56,0-4.77-.18-6.79h3.46l.13,4.28H416a6.53,6.53,0,0,1,6-4.77,4.29,4.29,0,0,1,1.13.13v3.73a6,6,0,0,0-1.35-.13c-2.79,0-4.77,2.12-5.31,5.08a11.12,11.12,0,0,0-.18,1.85V999h-3.92Z" transform="translate(-197.5 -71.5)"/><path d="M433.48,968.18a51.92,51.92,0,0,1-4.23,10.67l-2.52.32a63.7,63.7,0,0,0,2.66-10.58Z" transform="translate(-197.5 -71.5)"/><path d="M434,995a10.38,10.38,0,0,0,5.22,1.58c2.88,0,4.23-1.44,4.23-3.24s-1.12-2.92-4-4c-3.91-1.4-5.76-3.55-5.76-6.17,0-3.51,2.83-6.39,7.51-6.39a10.86,10.86,0,0,1,5.35,1.35l-1,2.88a8.49,8.49,0,0,0-4.46-1.26c-2.34,0-3.65,1.35-3.65,3,0,1.8,1.31,2.61,4.14,3.69,3.78,1.44,5.71,3.33,5.71,6.57,0,3.82-3,6.52-8.15,6.52A12.42,12.42,0,0,1,433,998Z" transform="translate(-197.5 -71.5)"/><path d="M461.92,967.05h4V999h-4Z" transform="translate(-197.5 -71.5)"/><path d="M484.6,999l-.31-2.75h-.13a8.11,8.11,0,0,1-6.66,3.24c-4.41,0-6.66-3.1-6.66-6.25,0-5.26,4.68-8.14,13.09-8.1v-.45c0-1.8-.5-5-4.95-5a10.86,10.86,0,0,0-5.67,1.62l-.9-2.61a13.52,13.52,0,0,1,7.15-1.93c6.66,0,8.28,4.54,8.28,8.91v8.14a30.66,30.66,0,0,0,.36,5.22ZM484,987.88c-4.32-.09-9.22.68-9.22,4.91a3.5,3.5,0,0,0,3.73,3.78,5.42,5.42,0,0,0,5.26-3.64,4.13,4.13,0,0,0,.23-1.26Z" transform="translate(-197.5 -71.5)"/><path d="M494.23,984.33c0-2.79-.09-5-.18-7.11h3.55l.18,3.73h.09a8.56,8.56,0,0,1,7.74-4.23c5.26,0,9.22,4.45,9.22,11.07,0,7.83-4.77,11.7-9.9,11.7a7.64,7.64,0,0,1-6.71-3.42h-.09v11.83h-3.92Zm3.92,5.8a8.9,8.9,0,0,0,.18,1.62,6.11,6.11,0,0,0,5.94,4.63c4.19,0,6.61-3.42,6.61-8.42,0-4.36-2.29-8.1-6.48-8.1a6.32,6.32,0,0,0-6,4.91,6.4,6.4,0,0,0-.27,1.62Z" transform="translate(-197.5 -71.5)"/><path d="M524.6,971v6.25h5.67v3H524.6V992c0,2.7.77,4.23,3,4.23a8.77,8.77,0,0,0,2.29-.27l.18,3a9.71,9.71,0,0,1-3.51.54,5.49,5.49,0,0,1-4.27-1.67c-1.12-1.17-1.53-3.11-1.53-5.67V980.24h-3.37v-3h3.38V972Z" transform="translate(-197.5 -71.5)"/><path d="M554.17,987.93c0,8.05-5.58,11.56-10.84,11.56-5.89,0-10.44-4.32-10.44-11.2,0-7.29,4.77-11.56,10.8-11.56C549.94,976.73,554.17,981.27,554.17,987.93Zm-17.28.22c0,4.77,2.74,8.37,6.61,8.37s6.61-3.55,6.61-8.46c0-3.69-1.85-8.37-6.52-8.37S536.89,984,536.89,988.16Z" transform="translate(-197.5 -71.5)"/><path d="M559.16,984.33c0-2.79-.09-5-.18-7.11h3.55l.18,3.73h.09a8.56,8.56,0,0,1,7.74-4.23c5.26,0,9.22,4.45,9.22,11.07,0,7.83-4.77,11.7-9.9,11.7a7.64,7.64,0,0,1-6.71-3.42h-.09v11.83h-3.92Zm3.92,5.8a8.9,8.9,0,0,0,.18,1.62,6.11,6.11,0,0,0,5.94,4.63c4.19,0,6.61-3.42,6.61-8.42,0-4.36-2.29-8.1-6.48-8.1a6.32,6.32,0,0,0-6,4.91,6.4,6.4,0,0,0-.27,1.62Z" transform="translate(-197.5 -71.5)"/></g><g id="CDP"><rect class="cls-1" x="522.5" y="486.5" width="1386" height="252" rx="31.06" ry="31.06"/><path d="M783.81,620.19a14.58,14.58,0,0,1-6.25,1.26c-6.57,0-10.84-4.46-10.84-11.11s4.59-11.56,11.7-11.56a13.24,13.24,0,0,1,5.49,1.13L783,603a9.18,9.18,0,0,0-4.59-1c-5,0-7.69,3.69-7.69,8.23,0,5,3.24,8.15,7.56,8.15a11.25,11.25,0,0,0,4.86-1.08Z" transform="translate(-197.5 -71.5)"/><path d="M807.88,609.93c0,8.05-5.58,11.56-10.84,11.56-5.89,0-10.44-4.32-10.44-11.2,0-7.29,4.77-11.56,10.8-11.56C803.65,598.73,807.88,603.27,807.88,609.93Zm-17.28.22c0,4.77,2.74,8.37,6.61,8.37s6.61-3.55,6.61-8.46c0-3.69-1.85-8.37-6.52-8.37S790.6,606,790.6,610.16Z" transform="translate(-197.5 -71.5)"/><path d="M812.88,605.12c0-2.25,0-4.09-.18-5.9h3.51l.23,3.6h.09a8,8,0,0,1,7.2-4.09c3,0,7.69,1.8,7.69,9.27v13h-4V608.45c0-3.51-1.3-6.43-5-6.43a5.63,5.63,0,0,0-5.31,4,5.69,5.69,0,0,0-.27,1.85V621h-4Z" transform="translate(-197.5 -71.5)"/><path d="M842.44,593v6.25h5.67v3h-5.67V614c0,2.7.77,4.23,3,4.23a8.79,8.79,0,0,0,2.29-.27l.18,3a9.7,9.7,0,0,1-3.51.54,5.49,5.49,0,0,1-4.27-1.67c-1.12-1.17-1.53-3.1-1.53-5.67V602.24H835.2v-3h3.38V594Z" transform="translate(-197.5 -71.5)"/><path d="M857,593.1a2.45,2.45,0,0,1-4.9,0,2.41,2.41,0,0,1,2.47-2.47A2.35,2.35,0,0,1,857,593.1ZM852.57,621V599.22h4V621Z" transform="translate(-197.5 -71.5)"/><path d="M863.1,605.12c0-2.25,0-4.09-.18-5.9h3.51l.23,3.6h.09a8,8,0,0,1,7.2-4.09c3,0,7.69,1.8,7.69,9.27v13h-4V608.45c0-3.51-1.31-6.43-5-6.43a5.63,5.63,0,0,0-5.31,4,5.69,5.69,0,0,0-.27,1.85V621h-4Z" transform="translate(-197.5 -71.5)"/><path d="M906.3,615.06c0,2.25,0,4.23.18,5.94H903l-.23-3.55h-.09a8.19,8.19,0,0,1-7.2,4c-3.42,0-7.51-1.89-7.51-9.54V599.22h4v12.06c0,4.14,1.26,6.93,4.86,6.93a5.72,5.72,0,0,0,5.22-3.6,5.8,5.8,0,0,0,.36-2V599.22h4Z" transform="translate(-197.5 -71.5)"/><path d="M932.58,609.93c0,8.05-5.58,11.56-10.84,11.56-5.89,0-10.44-4.32-10.44-11.2,0-7.29,4.77-11.56,10.8-11.56C928.35,598.73,932.58,603.27,932.58,609.93Zm-17.28.22c0,4.77,2.74,8.37,6.61,8.37s6.61-3.55,6.61-8.46c0-3.69-1.85-8.37-6.52-8.37S915.3,606,915.3,610.16Z" transform="translate(-197.5 -71.5)"/><path d="M955.8,615.06c0,2.25,0,4.23.18,5.94h-3.51l-.23-3.55h-.09a8.19,8.19,0,0,1-7.2,4c-3.42,0-7.51-1.89-7.51-9.54V599.22h4v12.06c0,4.14,1.26,6.93,4.86,6.93a5.72,5.72,0,0,0,5.22-3.6,5.8,5.8,0,0,0,.36-2V599.22h4Z" transform="translate(-197.5 -71.5)"/><path d="M961.83,617a10.38,10.38,0,0,0,5.22,1.57c2.88,0,4.23-1.44,4.23-3.24s-1.12-2.92-4-4c-3.91-1.4-5.76-3.55-5.76-6.16,0-3.51,2.83-6.39,7.51-6.39a10.87,10.87,0,0,1,5.35,1.35l-1,2.88a8.48,8.48,0,0,0-4.46-1.26c-2.34,0-3.65,1.35-3.65,3,0,1.8,1.31,2.61,4.14,3.69,3.78,1.44,5.71,3.33,5.71,6.57,0,3.82-3,6.52-8.15,6.52a12.42,12.42,0,0,1-6.12-1.49Z" transform="translate(-197.5 -71.5)"/><path d="M1008.54,589.05v26.32c0,1.94,0,4.14.18,5.63h-3.55l-.18-3.78h-.09a8.06,8.06,0,0,1-7.42,4.27c-5.26,0-9.31-4.46-9.31-11.07,0-7.24,4.45-11.7,9.76-11.7,3.33,0,5.58,1.57,6.57,3.33h.09v-13Zm-4,19a7,7,0,0,0-.18-1.67,5.82,5.82,0,0,0-5.71-4.59c-4.09,0-6.52,3.6-6.52,8.42,0,4.41,2.16,8.05,6.43,8.05a6,6,0,0,0,5.8-4.73,6.87,6.87,0,0,0,.18-1.71Z" transform="translate(-197.5 -71.5)"/><path d="M1017.31,610.83c.09,5.35,3.51,7.56,7.47,7.56a14.32,14.32,0,0,0,6-1.12l.67,2.83a17.64,17.64,0,0,1-7.24,1.35c-6.7,0-10.71-4.41-10.71-11s3.87-11.74,10.21-11.74c7.11,0,9,6.25,9,10.26a15,15,0,0,1-.14,1.85Zm11.61-2.83c0-2.52-1-6.44-5.49-6.44-4,0-5.76,3.69-6.07,6.44Z" transform="translate(-197.5 -71.5)"/><path d="M1037.65,589.05h4V621h-4Z" transform="translate(-197.5 -71.5)"/><path d="M1052.68,593.1a2.45,2.45,0,0,1-4.9,0,2.41,2.41,0,0,1,2.47-2.47A2.35,2.35,0,0,1,1052.68,593.1Zm-4.41,27.9V599.22h4V621Z" transform="translate(-197.5 -71.5)"/><path d="M1060.33,599.22l4.27,12.24a56.14,56.14,0,0,1,1.75,5.58h.13c.5-1.8,1.13-3.6,1.85-5.58l4.23-12.24h4.14L1068.16,621h-3.78l-8.28-21.78Z" transform="translate(-197.5 -71.5)"/><path d="M1082.2,610.83c.09,5.35,3.51,7.56,7.47,7.56a14.32,14.32,0,0,0,6-1.12l.67,2.83a17.64,17.64,0,0,1-7.24,1.35c-6.7,0-10.71-4.41-10.71-11s3.87-11.74,10.21-11.74c7.11,0,9,6.25,9,10.26a15,15,0,0,1-.14,1.85Zm11.61-2.83c0-2.52-1-6.44-5.49-6.44-4,0-5.76,3.69-6.07,6.44Z" transform="translate(-197.5 -71.5)"/><path d="M1102.54,606c0-2.56,0-4.77-.18-6.79h3.46l.13,4.27h.18a6.53,6.53,0,0,1,6-4.77,4.29,4.29,0,0,1,1.13.13v3.73a6,6,0,0,0-1.35-.13c-2.79,0-4.77,2.11-5.31,5.08a11.11,11.11,0,0,0-.18,1.85V621h-3.92Z" transform="translate(-197.5 -71.5)"/><path d="M1119.82,599.22l4.77,12.87c.5,1.44,1,3.15,1.4,4.46h.09c.41-1.31.85-3,1.4-4.54l4.32-12.78H1136L1130,614.75c-2.83,7.47-4.77,11.29-7.47,13.63a10.73,10.73,0,0,1-4.86,2.56l-1-3.33a10.47,10.47,0,0,0,3.46-1.94,12,12,0,0,0,3.33-4.41,2.84,2.84,0,0,0,.31-.94,3.45,3.45,0,0,0-.27-1l-8.05-20.07Z" transform="translate(-197.5 -71.5)"/><path d="M1149.11,606.33c0-2.79-.09-5-.18-7.11h3.55l.18,3.73h.09a8.56,8.56,0,0,1,7.74-4.23c5.26,0,9.22,4.45,9.22,11.07,0,7.83-4.77,11.7-9.9,11.7a7.64,7.64,0,0,1-6.71-3.42H1153v11.83h-3.92Zm3.92,5.8a8.89,8.89,0,0,0,.18,1.62,6.11,6.11,0,0,0,5.94,4.63c4.19,0,6.61-3.42,6.61-8.41,0-4.36-2.29-8.1-6.48-8.1a6.32,6.32,0,0,0-6,4.9,6.4,6.4,0,0,0-.27,1.62Z" transform="translate(-197.5 -71.5)"/><path d="M1179.13,593.1a2.45,2.45,0,0,1-4.9,0,2.41,2.41,0,0,1,2.47-2.47A2.35,2.35,0,0,1,1179.13,593.1Zm-4.41,27.9V599.22h4V621Z" transform="translate(-197.5 -71.5)"/><path d="M1185.25,606.33c0-2.79-.09-5-.18-7.11h3.55l.18,3.73h.09a8.56,8.56,0,0,1,7.74-4.23c5.26,0,9.22,4.45,9.22,11.07,0,7.83-4.77,11.7-9.9,11.7a7.64,7.64,0,0,1-6.71-3.42h-.09v11.83h-3.92Zm3.92,5.8a8.89,8.89,0,0,0,.18,1.62,6.11,6.11,0,0,0,5.94,4.63c4.19,0,6.61-3.42,6.61-8.41,0-4.36-2.29-8.1-6.48-8.1a6.32,6.32,0,0,0-6,4.9,6.4,6.4,0,0,0-.27,1.62Z" transform="translate(-197.5 -71.5)"/><path d="M1213.06,610.83c.09,5.35,3.51,7.56,7.47,7.56a14.32,14.32,0,0,0,6-1.12l.67,2.83a17.64,17.64,0,0,1-7.24,1.35c-6.7,0-10.71-4.41-10.71-11s3.87-11.74,10.21-11.74c7.11,0,9,6.25,9,10.26a15,15,0,0,1-.14,1.85Zm11.61-2.83c0-2.52-1-6.44-5.49-6.44-4,0-5.76,3.69-6.07,6.44Z" transform="translate(-197.5 -71.5)"/><path d="M1233.4,589.05h4V621h-4Z" transform="translate(-197.5 -71.5)"/><path d="M1248.43,593.1a2.45,2.45,0,0,1-4.9,0,2.41,2.41,0,0,1,2.47-2.47A2.35,2.35,0,0,1,1248.43,593.1ZM1244,621V599.22h4V621Z" transform="translate(-197.5 -71.5)"/><path d="M1254.55,605.12c0-2.25,0-4.09-.18-5.9h3.51l.23,3.6h.09a8,8,0,0,1,7.2-4.09c3,0,7.69,1.8,7.69,9.27v13h-4V608.45c0-3.51-1.3-6.43-5-6.43a5.63,5.63,0,0,0-5.31,4,5.69,5.69,0,0,0-.27,1.85V621h-4Z" transform="translate(-197.5 -71.5)"/><path d="M1281.73,610.83c.09,5.35,3.51,7.56,7.47,7.56a14.32,14.32,0,0,0,6-1.12l.67,2.83a17.64,17.64,0,0,1-7.24,1.35c-6.7,0-10.71-4.41-10.71-11s3.87-11.74,10.21-11.74c7.11,0,9,6.25,9,10.26a15,15,0,0,1-.13,1.85Zm11.61-2.83c0-2.52-1-6.44-5.49-6.44-4,0-5.76,3.69-6.07,6.44Z" transform="translate(-197.5 -71.5)"/></g><g id="CI"><rect class="cls-1" x="567.5" y="612.5" width="81" height="72"/><path d="M813.08,736.79a23.75,23.75,0,0,1-9.79,1.76c-10.45,0-18.31-6.6-18.31-18.75,0-11.6,7.86-19.47,19.36-19.47a19.88,19.88,0,0,1,8.8,1.65L812,705.88a17.41,17.41,0,0,0-7.48-1.54c-8.69,0-14.46,5.55-14.46,15.29,0,9.07,5.22,14.9,14.24,14.9a19.16,19.16,0,0,0,7.81-1.54Z" transform="translate(-197.5 -71.5)"/><path d="M823.86,700.93V738h-4.78V700.93Z" transform="translate(-197.5 -71.5)"/></g><g id="CR"><rect class="cls-1" x="720.5" y="612.5" width="396" height="72"/><path d="M944.68,701.43a68.59,68.59,0,0,1,10.17-.77c6.87,0,11.77,1.59,15,4.62s5.22,7.31,5.22,13.31-1.87,11-5.33,14.41-9.18,5.33-16.39,5.33a77.1,77.1,0,0,1-8.69-.44Zm4.78,32.78a30.12,30.12,0,0,0,4.84.28c10.23,0,15.78-5.72,15.78-15.73.06-8.74-4.89-14.3-15-14.3a27.22,27.22,0,0,0-5.61.5Z" transform="translate(-197.5 -71.5)"/><path d="M1005.45,724.47c0,9.84-6.82,14.13-13.25,14.13-7.2,0-12.76-5.28-12.76-13.69,0-8.91,5.83-14.13,13.2-14.13C1000.28,710.78,1005.45,716.33,1005.45,724.47Zm-21.12.28c0,5.83,3.35,10.23,8.08,10.23s8.08-4.34,8.08-10.34c0-4.51-2.25-10.23-8-10.23S984.33,719.69,984.33,724.75Z" transform="translate(-197.5 -71.5)"/><path d="M1030.53,737a17.82,17.82,0,0,1-7.64,1.54c-8,0-13.25-5.44-13.25-13.58s5.61-14.13,14.3-14.13a16.19,16.19,0,0,1,6.71,1.37l-1.1,3.74a11.22,11.22,0,0,0-5.61-1.26c-6.1,0-9.4,4.51-9.4,10.06,0,6.16,4,10,9.24,10a13.76,13.76,0,0,0,5.94-1.32Z" transform="translate(-197.5 -71.5)"/><path d="M1041,723.59h.11c.66-.93,1.59-2.09,2.36-3l7.81-9.18h5.83l-10.28,10.94L1058.52,738h-5.88l-9.18-12.76L1041,728v10h-4.78V699H1041Z" transform="translate(-197.5 -71.5)"/><path d="M1064.69,725.57c.11,6.54,4.29,9.24,9.13,9.24a17.51,17.51,0,0,0,7.37-1.37l.82,3.46a21.56,21.56,0,0,1-8.85,1.65c-8.19,0-13.09-5.39-13.09-13.42s4.73-14.35,12.48-14.35c8.69,0,11,7.64,11,12.54a18.29,18.29,0,0,1-.17,2.25Zm14.19-3.46c.05-3.08-1.27-7.86-6.71-7.86-4.89,0-7,4.51-7.42,7.86Z" transform="translate(-197.5 -71.5)"/><path d="M1089.55,719.69c0-3.13-.06-5.83-.22-8.3h4.23l.17,5.22h.22c1.21-3.57,4.12-5.83,7.37-5.83a5.26,5.26,0,0,1,1.38.17v4.56a7.31,7.31,0,0,0-1.65-.17c-3.41,0-5.83,2.58-6.49,6.21a13.62,13.62,0,0,0-.22,2.25V738h-4.78Z" transform="translate(-197.5 -71.5)"/><path d="M1119.19,719.69c0-3.13-.06-5.83-.22-8.3h4.23l.17,5.22h.22c1.21-3.57,4.12-5.83,7.37-5.83a5.26,5.26,0,0,1,1.38.17v4.56a7.31,7.31,0,0,0-1.65-.17c-3.41,0-5.83,2.58-6.49,6.21a13.57,13.57,0,0,0-.22,2.25V738h-4.78Z" transform="translate(-197.5 -71.5)"/><path d="M1139.32,725.57c.11,6.54,4.29,9.24,9.13,9.24a17.51,17.51,0,0,0,7.37-1.37l.82,3.46a21.56,21.56,0,0,1-8.85,1.65c-8.19,0-13.09-5.39-13.09-13.42s4.73-14.35,12.48-14.35c8.69,0,11,7.64,11,12.54a18.29,18.29,0,0,1-.17,2.25Zm14.19-3.46c.05-3.08-1.27-7.86-6.71-7.86-4.89,0-7,4.51-7.42,7.86Z" transform="translate(-197.5 -71.5)"/><path d="M1187.11,711.38c-.11,1.92-.22,4.07-.22,7.31v15.45c0,6.1-1.21,9.84-3.79,12.15s-6.32,3.19-9.68,3.19c-3.19,0-6.71-.77-8.85-2.2l1.21-3.68a15,15,0,0,0,7.81,2.09c4.95,0,8.58-2.58,8.58-9.29v-3h-.11a9.5,9.5,0,0,1-8.47,4.45c-6.6,0-11.33-5.61-11.33-13,0-9,5.88-14.13,12-14.13,4.62,0,7.15,2.42,8.3,4.62h.11l.22-4Zm-5,10.5a6.89,6.89,0,0,0-.27-2.2,7,7,0,0,0-6.76-5.11c-4.62,0-7.92,3.9-7.92,10.06,0,5.22,2.64,9.57,7.86,9.57a7.07,7.07,0,0,0,6.71-4.95,8.42,8.42,0,0,0,.38-2.58Z" transform="translate(-197.5 -71.5)"/><path d="M1200,703.9a3,3,0,0,1-6,0,3,3,0,0,1,3-3A2.87,2.87,0,0,1,1200,703.9ZM1194.6,738V711.38h4.84V738Z" transform="translate(-197.5 -71.5)"/><path d="M1206.81,733.05a12.69,12.69,0,0,0,6.38,1.92c3.52,0,5.17-1.76,5.17-4s-1.37-3.57-4.95-4.89c-4.78-1.7-7-4.34-7-7.53,0-4.29,3.46-7.81,9.18-7.81a13.28,13.28,0,0,1,6.54,1.65l-1.21,3.52a10.36,10.36,0,0,0-5.44-1.54c-2.86,0-4.45,1.65-4.45,3.63,0,2.2,1.59,3.19,5.06,4.51,4.62,1.76,7,4.07,7,8,0,4.67-3.63,8-10,8a15.18,15.18,0,0,1-7.48-1.81Z" transform="translate(-197.5 -71.5)"/><path d="M1235.07,703.74v7.64H1242v3.68h-6.93v14.35c0,3.3.94,5.17,3.63,5.17a10.76,10.76,0,0,0,2.8-.33l.22,3.63a11.83,11.83,0,0,1-4.29.66,6.71,6.71,0,0,1-5.22-2c-1.37-1.43-1.87-3.79-1.87-6.93V715.07h-4.12v-3.68h4.12V705Z" transform="translate(-197.5 -71.5)"/><path d="M1247.45,719.69c0-3.13-.06-5.83-.22-8.3h4.23l.17,5.22h.22c1.21-3.57,4.12-5.83,7.37-5.83a5.26,5.26,0,0,1,1.38.17v4.56a7.31,7.31,0,0,0-1.65-.17c-3.41,0-5.83,2.58-6.49,6.21a13.62,13.62,0,0,0-.22,2.25V738h-4.78Z" transform="translate(-197.5 -71.5)"/><path d="M1268.57,711.38l5.83,15.73c.6,1.76,1.26,3.85,1.7,5.44h.11c.5-1.59,1-3.63,1.71-5.55l5.28-15.62h5.11l-7.26,19c-3.46,9.13-5.83,13.8-9.13,16.66a13.11,13.11,0,0,1-5.94,3.13l-1.21-4.07a12.8,12.8,0,0,0,4.23-2.37,14.66,14.66,0,0,0,4.07-5.39,3.48,3.48,0,0,0,.38-1.16,4.23,4.23,0,0,0-.33-1.26l-9.84-24.53Z" transform="translate(-197.5 -71.5)"/></g><g id="WeaveFlux"><rect class="cls-1" x="1197.5" y="513.5" width="189" height="171"/><path d="M1419.33,648l-9.4-37.07H1415l4.4,18.75c1.1,4.62,2.09,9.24,2.75,12.81h.11c.6-3.68,1.76-8.08,3-12.87l4.95-18.7h5l4.51,18.81c1,4.4,2,8.8,2.58,12.7h.11c.77-4.07,1.81-8.19,3-12.81l4.89-18.7h4.89L1444.68,648h-5L1435,628.7a111.8,111.8,0,0,1-2.42-12.1h-.11a115.84,115.84,0,0,1-2.86,12.1l-5.28,19.3Z" transform="translate(-197.5 -71.5)"/><path d="M1460.53,635.57c.11,6.54,4.29,9.24,9.13,9.24a17.51,17.51,0,0,0,7.37-1.37l.82,3.46a21.57,21.57,0,0,1-8.85,1.65c-8.19,0-13.09-5.39-13.09-13.42s4.73-14.35,12.48-14.35c8.69,0,11,7.64,11,12.54a18.29,18.29,0,0,1-.17,2.25Zm14.19-3.46c.05-3.08-1.26-7.86-6.71-7.86-4.89,0-7,4.51-7.42,7.86Z" transform="translate(-197.5 -71.5)"/><path d="M1500.12,648l-.38-3.35h-.17a9.91,9.91,0,0,1-8.14,4c-5.39,0-8.14-3.79-8.14-7.64,0-6.43,5.72-10,16-9.9v-.55c0-2.2-.6-6.16-6-6.16a13.26,13.26,0,0,0-6.93,2l-1.1-3.19a16.52,16.52,0,0,1,8.74-2.37c8.14,0,10.12,5.55,10.12,10.89v10a37.46,37.46,0,0,0,.44,6.38Zm-.71-13.58c-5.28-.11-11.27.83-11.27,6a4.28,4.28,0,0,0,4.56,4.62,6.62,6.62,0,0,0,6.43-4.45,5.05,5.05,0,0,0,.28-1.54Z" transform="translate(-197.5 -71.5)"/><path d="M1513.32,621.38l5.22,15a68.46,68.46,0,0,1,2.14,6.82h.17c.6-2.2,1.38-4.4,2.25-6.82l5.17-15h5.06L1522.89,648h-4.62l-10.12-26.62Z" transform="translate(-197.5 -71.5)"/><path d="M1540.05,635.57c.11,6.54,4.29,9.24,9.13,9.24a17.51,17.51,0,0,0,7.37-1.37l.83,3.46a21.57,21.57,0,0,1-8.85,1.65c-8.19,0-13.09-5.39-13.09-13.42s4.73-14.35,12.48-14.35c8.69,0,11,7.64,11,12.54a18.33,18.33,0,0,1-.16,2.25Zm14.19-3.46c.05-3.08-1.27-7.86-6.71-7.86-4.89,0-7,4.51-7.42,7.86Z" transform="translate(-197.5 -71.5)"/><path d="M1441.88,676.93h20v4h-15.18v12.32h14v4h-14V714h-4.78Z" transform="translate(-197.5 -71.5)"/><path d="M1467.56,675h4.84v39h-4.84Z" transform="translate(-197.5 -71.5)"/><path d="M1502.82,706.74c0,2.75.05,5.17.22,7.26h-4.29l-.28-4.34h-.11a10,10,0,0,1-8.8,4.95c-4.18,0-9.18-2.31-9.18-11.66V687.38h4.84v14.74c0,5.06,1.54,8.47,5.94,8.47a6.81,6.81,0,0,0,6.82-6.87V687.38h4.84Z" transform="translate(-197.5 -71.5)"/><path d="M1513.1,687.38l3.79,5.72c1,1.49,1.81,2.86,2.69,4.34h.17c.88-1.59,1.76-3,2.64-4.4l3.74-5.66h5.22l-9.07,12.87,9.35,13.75h-5.5l-3.9-6c-1-1.54-1.92-3-2.86-4.62h-.11c-.88,1.59-1.81,3-2.8,4.62l-3.85,6h-5.33l9.46-13.58-9-13Z" transform="translate(-197.5 -71.5)"/></g><g id="ArrowDevAppCodeVCS"><g id="ArrowDevAppCodeVCS-2" data-name="ArrowDevAppCodeVCS"><line class="cls-3" x1="306.5" y1="765.5" x2="771.4" y2="1023.78"/><path d="M990,1107c-12-1.83-27.79-2.39-39.13,0l15.25-13.29,3.22-20C973.29,1084.67,982.12,1097.8,990,1107Z" transform="translate(-197.5 -71.5)"/></g></g><g id="ArrowVCSCI"><g id="ArrowVCSCI-2" data-name="ArrowVCSCI"><line class="cls-3" x1="624.48" y1="705.46" x2="792.5" y2="999.5"/><path d="M810,756c2,12,2.72,27.76.45,39.12l13.1-15.41,19.93-3.46C832.53,772.44,819.29,763.77,810,756Z" transform="translate(-197.5 -71.5)"/></g></g><g id="ArrowFluxVCS"><g id="ArrowFluxVCS-2" data-name="ArrowFluxVCS"><line class="cls-3" x1="1038.92" y1="1059.8" x2="1269.5" y2="675.5"/><path d="M1224,1152c9.46-7.57,22.88-16,33.9-19.53l-19.85-3.89-12.77-15.69C1227.32,1124.31,1226.23,1140.09,1224,1152Z" transform="translate(-197.5 -71.5)"/></g></g><g id="ArrowCRFlux"><g id="ArrowCRFlux-2" data-name="ArrowCRFlux"><line class="cls-4" x1="1116.5" y1="648.5" x2="1179.39" y2="648.5"/><path d="M1395,720c-8.52,3.16-19.09,8.55-25.64,14.27l5.16-14.27-5.16-14.26C1375.91,711.45,1386.48,716.84,1395,720Z" transform="translate(-197.5 -71.5)"/></g></g><g id="ArrowCICR"><g id="ArrowCICR-2" data-name="ArrowCICR"><line class="cls-4" x1="648.5" y1="648.5" x2="702.39" y2="648.5"/><path d="M918,720c-8.52,3.16-19.09,8.55-25.64,14.27L897.52,720l-5.16-14.26C898.91,711.45,909.48,716.84,918,720Z" transform="translate(-197.5 -71.5)"/></g></g><g id="DevDockerForMac"><rect class="cls-1" x="171.5" y="576.5" width="216" height="63"/><path d="M389.13,674.38a35,35,0,0,1,5.18-.39c3.5,0,6,.81,7.64,2.35a8.69,8.69,0,0,1,2.66,6.78,10,10,0,0,1-2.72,7.34c-1.76,1.76-4.68,2.72-8.34,2.72a39.41,39.41,0,0,1-4.42-.22Zm2.44,16.69a15.47,15.47,0,0,0,2.46.14c5.21,0,8-2.91,8-8,0-4.45-2.49-7.28-7.64-7.28a13.87,13.87,0,0,0-2.86.25Z" transform="translate(-197.5 -71.5)"/><path d="M420.07,686.11c0,5-3.47,7.2-6.75,7.2-3.67,0-6.5-2.69-6.5-7,0-4.54,3-7.2,6.72-7.2S420.07,682,420.07,686.11Zm-10.75.14c0,3,1.71,5.21,4.12,5.21s4.12-2.21,4.12-5.26c0-2.3-1.15-5.21-4.06-5.21S409.32,683.68,409.32,686.25Z" transform="translate(-197.5 -71.5)"/><path d="M432.84,692.5a9.08,9.08,0,0,1-3.89.78c-4.09,0-6.75-2.77-6.75-6.92a6.89,6.89,0,0,1,7.28-7.2,8.24,8.24,0,0,1,3.42.7l-.56,1.9a5.71,5.71,0,0,0-2.86-.64c-3.11,0-4.79,2.3-4.79,5.12,0,3.14,2,5.07,4.7,5.07a7,7,0,0,0,3-.67Z" transform="translate(-197.5 -71.5)"/><path d="M438.16,685.66h.06c.34-.48.81-1.06,1.2-1.54l4-4.68h3L441.12,685l6,8h-3l-4.68-6.5-1.26,1.4V693h-2.44V673.12h2.44Z" transform="translate(-197.5 -71.5)"/><path d="M450.22,686.67c.06,3.33,2.18,4.7,4.65,4.7a8.9,8.9,0,0,0,3.75-.7l.42,1.76a11,11,0,0,1-4.51.84c-4.17,0-6.66-2.74-6.66-6.83s2.41-7.31,6.36-7.31c4.42,0,5.6,3.89,5.6,6.38a9.32,9.32,0,0,1-.08,1.15Zm7.22-1.76c0-1.57-.64-4-3.42-4-2.49,0-3.58,2.3-3.78,4Z" transform="translate(-197.5 -71.5)"/><path d="M462.88,683.68c0-1.6,0-3-.11-4.23h2.16l.08,2.66h.11a4.07,4.07,0,0,1,3.75-3,2.68,2.68,0,0,1,.7.08v2.32a3.72,3.72,0,0,0-.84-.08,3.46,3.46,0,0,0-3.3,3.16,7,7,0,0,0-.11,1.15V693h-2.44Z" transform="translate(-197.5 -71.5)"/></g><g id="DevScopeProbe"><rect class="cls-1" x="171.5" y="648.5" width="234" height="63"/><path d="M388.79,762a8.63,8.63,0,0,0,4.37,1.23c2.49,0,3.95-1.32,3.95-3.22s-1-2.77-3.56-3.75c-3.08-1.09-5-2.69-5-5.35,0-2.94,2.44-5.12,6.1-5.12a8.58,8.58,0,0,1,4.17.92l-.67,2a7.51,7.51,0,0,0-3.58-.9c-2.58,0-3.56,1.54-3.56,2.83,0,1.76,1.15,2.63,3.75,3.64,3.19,1.23,4.82,2.77,4.82,5.54s-2.16,5.43-6.61,5.43a9.76,9.76,0,0,1-4.82-1.2Z" transform="translate(-197.5 -71.5)"/><path d="M412.68,764.5a9.08,9.08,0,0,1-3.89.78c-4.09,0-6.75-2.77-6.75-6.92a6.89,6.89,0,0,1,7.28-7.2,8.24,8.24,0,0,1,3.42.7l-.56,1.9a5.72,5.72,0,0,0-2.86-.64c-3.11,0-4.79,2.3-4.79,5.12,0,3.14,2,5.07,4.7,5.07a7,7,0,0,0,3-.67Z" transform="translate(-197.5 -71.5)"/><path d="M427.66,758.11c0,5-3.47,7.2-6.75,7.2-3.67,0-6.5-2.69-6.5-7,0-4.54,3-7.2,6.72-7.2S427.66,754,427.66,758.11Zm-10.75.14c0,3,1.71,5.21,4.12,5.21s4.12-2.21,4.12-5.26c0-2.3-1.15-5.21-4.06-5.21S416.9,755.68,416.9,758.25Z" transform="translate(-197.5 -71.5)"/><path d="M430.76,755.87c0-1.74-.06-3.14-.11-4.42h2.21l.11,2.32H433a5.33,5.33,0,0,1,4.82-2.63c3.28,0,5.74,2.77,5.74,6.89,0,4.87-3,7.28-6.16,7.28a4.75,4.75,0,0,1-4.17-2.13h-.06v7.36h-2.44Zm2.44,3.61a5.59,5.59,0,0,0,.11,1,3.8,3.8,0,0,0,3.7,2.88c2.6,0,4.12-2.13,4.12-5.24,0-2.72-1.43-5-4-5a3.93,3.93,0,0,0-3.72,3.05,4,4,0,0,0-.17,1Z" transform="translate(-197.5 -71.5)"/><path d="M448.07,758.67c.06,3.33,2.18,4.7,4.65,4.7a8.9,8.9,0,0,0,3.75-.7l.42,1.76a11,11,0,0,1-4.51.84c-4.17,0-6.66-2.74-6.66-6.83s2.41-7.31,6.36-7.31c4.42,0,5.6,3.89,5.6,6.38a9.32,9.32,0,0,1-.08,1.15Zm7.22-1.76c0-1.57-.64-4-3.42-4-2.49,0-3.58,2.3-3.78,4Z" transform="translate(-197.5 -71.5)"/><path d="M466.66,755.87c0-1.74-.06-3.14-.11-4.42h2.21l.11,2.32h.06a5.33,5.33,0,0,1,4.82-2.63c3.28,0,5.74,2.77,5.74,6.89,0,4.87-3,7.28-6.16,7.28a4.75,4.75,0,0,1-4.17-2.13h-.06v7.36h-2.44Zm2.44,3.61a5.59,5.59,0,0,0,.11,1,3.8,3.8,0,0,0,3.7,2.88c2.6,0,4.12-2.13,4.12-5.24,0-2.72-1.43-5-4-5a3.93,3.93,0,0,0-3.72,3.05,4,4,0,0,0-.17,1Z" transform="translate(-197.5 -71.5)"/><path d="M482.59,755.68c0-1.6,0-3-.11-4.23h2.16l.08,2.66h.11a4.07,4.07,0,0,1,3.75-3,2.68,2.68,0,0,1,.7.08v2.32a3.72,3.72,0,0,0-.84-.08,3.46,3.46,0,0,0-3.3,3.16,7,7,0,0,0-.11,1.15V765h-2.44Z" transform="translate(-197.5 -71.5)"/><path d="M503.73,758.11c0,5-3.47,7.2-6.75,7.2-3.67,0-6.5-2.69-6.5-7,0-4.54,3-7.2,6.72-7.2S503.73,754,503.73,758.11Zm-10.75.14c0,3,1.71,5.21,4.12,5.21s4.12-2.21,4.12-5.26c0-2.3-1.15-5.21-4.06-5.21S493,755.68,493,758.25Z" transform="translate(-197.5 -71.5)"/><path d="M506.73,765c.06-.92.11-2.3.11-3.5V745.12h2.44v8.51h.06a5,5,0,0,1,4.62-2.49c3.36,0,5.74,2.8,5.71,6.92,0,4.84-3.05,7.25-6.08,7.25a4.83,4.83,0,0,1-4.54-2.55H509l-.11,2.24Zm2.55-5.43a4.64,4.64,0,0,0,.11.9,3.8,3.8,0,0,0,3.7,2.88c2.58,0,4.12-2.1,4.12-5.21,0-2.72-1.4-5-4-5a3.93,3.93,0,0,0-3.75,3,4.85,4.85,0,0,0-.14,1Z" transform="translate(-197.5 -71.5)"/><path d="M524.14,758.67c.06,3.33,2.18,4.7,4.65,4.7a8.9,8.9,0,0,0,3.75-.7l.42,1.76a11,11,0,0,1-4.51.84c-4.17,0-6.66-2.74-6.66-6.83s2.41-7.31,6.36-7.31c4.42,0,5.6,3.89,5.6,6.38a9.32,9.32,0,0,1-.08,1.15Zm7.22-1.76c0-1.57-.64-4-3.42-4-2.49,0-3.58,2.3-3.78,4Z" transform="translate(-197.5 -71.5)"/></g><g id="DevAppCode"><rect class="cls-1" x="90.5" y="725" width="216" height="63"/><path d="M311.18,835.56l-2,5.94H306.7l6.41-18.87h2.94l6.44,18.87h-2.6l-2-5.94Zm6.19-1.9-1.85-5.43c-.42-1.23-.7-2.35-1-3.44h-.06c-.28,1.12-.59,2.27-1,3.42l-1.85,5.46Z" transform="translate(-197.5 -71.5)"/><path d="M325.1,832.37c0-1.74-.06-3.14-.11-4.42h2.21l.11,2.32h.06a5.33,5.33,0,0,1,4.82-2.63c3.28,0,5.74,2.77,5.74,6.89,0,4.87-3,7.28-6.16,7.28a4.75,4.75,0,0,1-4.17-2.13h-.06V847H325.1Zm2.44,3.61a5.59,5.59,0,0,0,.11,1,3.8,3.8,0,0,0,3.7,2.88c2.6,0,4.12-2.13,4.12-5.24,0-2.72-1.43-5-4-5a3.93,3.93,0,0,0-3.72,3.05,4,4,0,0,0-.17,1Z" transform="translate(-197.5 -71.5)"/><path d="M341,832.37c0-1.74-.06-3.14-.11-4.42h2.21l.11,2.32h.06a5.33,5.33,0,0,1,4.82-2.63c3.28,0,5.74,2.77,5.74,6.89,0,4.87-3,7.28-6.16,7.28a4.75,4.75,0,0,1-4.17-2.13h-.06V847H341Zm2.44,3.61a5.59,5.59,0,0,0,.11,1,3.8,3.8,0,0,0,3.7,2.88c2.6,0,4.12-2.13,4.12-5.24,0-2.72-1.43-5-4-5a3.93,3.93,0,0,0-3.72,3.05,4,4,0,0,0-.17,1Z" transform="translate(-197.5 -71.5)"/><path d="M372.56,841a9.08,9.08,0,0,1-3.89.78c-4.09,0-6.75-2.77-6.75-6.92a6.89,6.89,0,0,1,7.28-7.2,8.24,8.24,0,0,1,3.42.7l-.56,1.9a5.71,5.71,0,0,0-2.86-.64c-3.11,0-4.79,2.3-4.79,5.12,0,3.14,2,5.07,4.7,5.07a7,7,0,0,0,3-.67Z" transform="translate(-197.5 -71.5)"/><path d="M387.54,834.61c0,5-3.47,7.2-6.75,7.2-3.67,0-6.5-2.69-6.5-7,0-4.54,3-7.2,6.72-7.2S387.54,830.47,387.54,834.61Zm-10.75.14c0,3,1.71,5.21,4.12,5.21s4.12-2.21,4.12-5.26c0-2.3-1.15-5.21-4.06-5.21S376.78,832.18,376.78,834.75Z" transform="translate(-197.5 -71.5)"/><path d="M402.35,821.62V838c0,1.2,0,2.58.11,3.5h-2.21l-.11-2.35h-.06a5,5,0,0,1-4.62,2.66c-3.28,0-5.8-2.77-5.8-6.89,0-4.51,2.77-7.28,6.08-7.28a4.53,4.53,0,0,1,4.09,2.07h.06v-8.09Zm-2.46,11.84a4.36,4.36,0,0,0-.11-1,3.62,3.62,0,0,0-3.56-2.86c-2.55,0-4.06,2.24-4.06,5.24,0,2.74,1.34,5,4,5a3.7,3.7,0,0,0,3.61-2.94,4.28,4.28,0,0,0,.11-1.06Z" transform="translate(-197.5 -71.5)"/><path d="M407.81,835.17c.06,3.33,2.18,4.7,4.65,4.7a8.9,8.9,0,0,0,3.75-.7l.42,1.76a11,11,0,0,1-4.51.84c-4.17,0-6.66-2.74-6.66-6.83s2.41-7.31,6.36-7.31c4.42,0,5.6,3.89,5.6,6.38a9.32,9.32,0,0,1-.08,1.15Zm7.22-1.76c0-1.57-.64-4-3.42-4-2.49,0-3.58,2.3-3.78,4Z" transform="translate(-197.5 -71.5)"/></g><g id="DevPolicySpec"><rect class="cls-1" x="90.5" y="806" width="243" height="63"/><path d="M311.18,921.06l-2,5.94H306.7l6.41-18.87h2.94L322.49,927h-2.6l-2-5.94Zm6.19-1.9-1.85-5.43c-.42-1.23-.7-2.35-1-3.44h-.06c-.28,1.12-.59,2.27-1,3.42l-1.85,5.46Z" transform="translate(-197.5 -71.5)"/><path d="M325.1,917.87c0-1.74-.06-3.14-.11-4.42h2.21l.11,2.32h.06a5.33,5.33,0,0,1,4.82-2.63c3.28,0,5.74,2.77,5.74,6.89,0,4.87-3,7.28-6.16,7.28a4.75,4.75,0,0,1-4.17-2.13h-.06v7.36H325.1Zm2.44,3.61a5.59,5.59,0,0,0,.11,1,3.8,3.8,0,0,0,3.7,2.88c2.6,0,4.12-2.13,4.12-5.24,0-2.72-1.43-5-4-5a3.93,3.93,0,0,0-3.72,3.05,4,4,0,0,0-.17,1Z" transform="translate(-197.5 -71.5)"/><path d="M341,917.87c0-1.74-.06-3.14-.11-4.42h2.21l.11,2.32h.06a5.33,5.33,0,0,1,4.82-2.63c3.28,0,5.74,2.77,5.74,6.89,0,4.87-3,7.28-6.16,7.28a4.75,4.75,0,0,1-4.17-2.13h-.06v7.36H341Zm2.44,3.61a5.59,5.59,0,0,0,.11,1,3.8,3.8,0,0,0,3.7,2.88c2.6,0,4.12-2.13,4.12-5.24,0-2.72-1.43-5-4-5a3.93,3.93,0,0,0-3.72,3.05,4,4,0,0,0-.17,1Z" transform="translate(-197.5 -71.5)"/><path d="M374.79,927c-.53-.53-1-1.06-1.76-1.85a7.73,7.73,0,0,1-5.52,2.16c-3.67,0-5.8-2.46-5.8-5.29,0-2.58,1.54-4.34,3.7-5.52v-.08a6.48,6.48,0,0,1-1.57-3.95,4.58,4.58,0,0,1,4.79-4.65,3.93,3.93,0,0,1,4.17,4c0,2-1.15,3.56-4.14,5v.08c1.6,1.85,3.39,3.92,4.59,5.26a13.83,13.83,0,0,0,1.82-5.52h2.24c-.5,3-1.32,5.32-2.72,7,1,1.06,2,2.13,3.11,3.33Zm-3-3.25c-1.12-1.23-3.22-3.53-5.32-5.94a4.64,4.64,0,0,0-2.44,3.84,3.72,3.72,0,0,0,3.86,3.81A5.27,5.27,0,0,0,371.83,923.75Zm-5.74-11.51a5.29,5.29,0,0,0,1.43,3.39c1.9-1.09,3.14-2.1,3.14-3.7a2.22,2.22,0,0,0-2.18-2.44A2.46,2.46,0,0,0,366.09,912.24Z" transform="translate(-197.5 -71.5)"/><path d="M385.77,917.87c0-1.74-.06-3.14-.11-4.42h2.21l.11,2.32H388a5.33,5.33,0,0,1,4.82-2.63c3.28,0,5.74,2.77,5.74,6.89,0,4.87-3,7.28-6.16,7.28a4.75,4.75,0,0,1-4.17-2.13h-.06v7.36h-2.44Zm2.44,3.61a5.59,5.59,0,0,0,.11,1,3.8,3.8,0,0,0,3.7,2.88c2.6,0,4.12-2.13,4.12-5.24,0-2.72-1.43-5-4-5a3.93,3.93,0,0,0-3.72,3.05,4,4,0,0,0-.17,1Z" transform="translate(-197.5 -71.5)"/><path d="M414,920.11c0,5-3.47,7.2-6.75,7.2-3.67,0-6.5-2.69-6.5-7,0-4.54,3-7.2,6.72-7.2S414,916,414,920.11Zm-10.75.14c0,3,1.71,5.21,4.12,5.21s4.12-2.21,4.12-5.26c0-2.3-1.15-5.21-4.06-5.21S403.21,917.68,403.21,920.25Z" transform="translate(-197.5 -71.5)"/><path d="M417.07,907.12h2.46V927h-2.46Z" transform="translate(-197.5 -71.5)"/><path d="M426.43,909.64a1.53,1.53,0,0,1-3.05,0,1.5,1.5,0,0,1,1.54-1.54A1.46,1.46,0,0,1,426.43,909.64ZM423.68,927V913.45h2.46V927Z" transform="translate(-197.5 -71.5)"/><path d="M439.89,926.5a9.08,9.08,0,0,1-3.89.78c-4.09,0-6.75-2.77-6.75-6.92a6.89,6.89,0,0,1,7.28-7.2,8.24,8.24,0,0,1,3.42.7l-.56,1.9a5.71,5.71,0,0,0-2.86-.64c-3.11,0-4.79,2.3-4.79,5.12,0,3.14,2,5.07,4.7,5.07a7,7,0,0,0,3-.67Z" transform="translate(-197.5 -71.5)"/><path d="M444.18,913.45l3,8c.31.9.64,2,.87,2.77h.06c.25-.81.53-1.85.87-2.83l2.69-8h2.6l-3.7,9.66c-1.76,4.65-3,7-4.65,8.48a6.66,6.66,0,0,1-3,1.6l-.62-2.07a6.52,6.52,0,0,0,2.16-1.2,7.48,7.48,0,0,0,2.07-2.74,1.77,1.77,0,0,0,.2-.59,2.16,2.16,0,0,0-.17-.64l-5-12.49Z" transform="translate(-197.5 -71.5)"/><path d="M462.07,924.48a6.46,6.46,0,0,0,3.25,1c1.79,0,2.63-.9,2.63-2s-.7-1.82-2.52-2.49c-2.44-.87-3.58-2.21-3.58-3.84,0-2.18,1.76-4,4.68-4a6.76,6.76,0,0,1,3.33.84l-.62,1.79a5.28,5.28,0,0,0-2.77-.78c-1.46,0-2.27.84-2.27,1.85s.81,1.62,2.58,2.3c2.35.9,3.56,2.07,3.56,4.09,0,2.38-1.85,4.06-5.07,4.06a7.73,7.73,0,0,1-3.81-.92Z" transform="translate(-197.5 -71.5)"/><path d="M473.49,917.87c0-1.74-.06-3.14-.11-4.42h2.21l.11,2.32h.06a5.33,5.33,0,0,1,4.82-2.63c3.28,0,5.74,2.77,5.74,6.89,0,4.87-3,7.28-6.16,7.28a4.75,4.75,0,0,1-4.17-2.13h-.06v7.36h-2.44Zm2.44,3.61a5.59,5.59,0,0,0,.11,1,3.8,3.8,0,0,0,3.7,2.88c2.6,0,4.12-2.13,4.12-5.24,0-2.72-1.43-5-4-5a3.93,3.93,0,0,0-3.72,3.05,4,4,0,0,0-.17,1Z" transform="translate(-197.5 -71.5)"/><path d="M490.8,920.67c.06,3.33,2.18,4.7,4.65,4.7a8.9,8.9,0,0,0,3.75-.7l.42,1.76a11,11,0,0,1-4.51.84c-4.17,0-6.66-2.74-6.66-6.83s2.41-7.31,6.36-7.31c4.42,0,5.6,3.89,5.6,6.38a9.32,9.32,0,0,1-.08,1.15Zm7.22-1.76c0-1.57-.64-4-3.42-4-2.49,0-3.58,2.3-3.78,4Z" transform="translate(-197.5 -71.5)"/><path d="M513.11,926.5a9.08,9.08,0,0,1-3.89.78c-4.09,0-6.75-2.77-6.75-6.92a6.89,6.89,0,0,1,7.28-7.2,8.24,8.24,0,0,1,3.42.7l-.56,1.9a5.72,5.72,0,0,0-2.86-.64c-3.11,0-4.79,2.3-4.79,5.12,0,3.14,2,5.07,4.7,5.07a7,7,0,0,0,3-.67Z" transform="translate(-197.5 -71.5)"/></g><g id="ArrorwPolicySpecNPC"><g id="ArrorwPolicySpecNPC-2" data-name="ArrorwPolicySpecNPC"><line class="cls-3" x1="333.5" y1="837.5" x2="1434.36" y2="837.5"/><path d="M1656,909c-11.36,4.21-25.45,11.41-34.19,19l6.88-19-6.88-19C1630.55,897.6,1644.64,904.79,1656,909Z" transform="translate(-197.5 -71.5)"/></g></g><g id="KubernetesCluster"><rect class="cls-2" x="1458.5" y="144.5" width="837" height="720"/></g><g id="WeaveCloud"><path class="cls-2" d="M450,432V72H1629V432m-284.21,0V792H1629V432M450,432h894.79" transform="translate(-197.5 -71.5)"/></g><g id="Prometheus"><rect class="cls-1" x="1881.5" y="162.5" width="369" height="81"/><path d="M2133.28,251.38a55.47,55.47,0,0,1,9.18-.71c4.73,0,8.19,1.1,10.39,3.08a10,10,0,0,1,3.24,7.75,10.91,10.91,0,0,1-2.86,7.92c-2.53,2.7-6.65,4.07-11.33,4.07a16.5,16.5,0,0,1-3.85-.33V288h-4.78Zm4.78,17.87a16,16,0,0,0,4,.39c5.77,0,9.29-2.8,9.29-7.92,0-4.89-3.46-7.26-8.74-7.26a20,20,0,0,0-4.51.39Z" transform="translate(-197.5 -71.5)"/><path d="M2161.49,269.69c0-3.13-.06-5.83-.22-8.3h4.23l.17,5.22h.22c1.21-3.57,4.13-5.83,7.37-5.83a5.25,5.25,0,0,1,1.38.17v4.56a7.31,7.31,0,0,0-1.65-.17c-3.41,0-5.83,2.58-6.49,6.21a13.57,13.57,0,0,0-.22,2.25V288h-4.78Z" transform="translate(-197.5 -71.5)"/><path d="M2203,274.47c0,9.84-6.82,14.13-13.25,14.13-7.2,0-12.76-5.28-12.76-13.69,0-8.91,5.83-14.13,13.2-14.13C2197.85,260.78,2203,266.33,2203,274.47Zm-21.12.28c0,5.83,3.35,10.23,8.08,10.23s8.08-4.34,8.08-10.34c0-4.51-2.25-10.23-8-10.23S2181.9,269.69,2181.9,274.75Z" transform="translate(-197.5 -71.5)"/><path d="M2209.12,268.59c0-2.75-.05-5-.22-7.2h4.23l.22,4.29h.17a9.17,9.17,0,0,1,8.36-4.89,7.87,7.87,0,0,1,7.53,5.33h.11a11,11,0,0,1,3-3.46,9.08,9.08,0,0,1,5.88-1.87c3.52,0,8.74,2.31,8.74,11.55V288h-4.73V272.93c0-5.11-1.87-8.19-5.78-8.19a6.26,6.26,0,0,0-5.72,4.4,8,8,0,0,0-.38,2.42V288h-4.73V272.05c0-4.23-1.87-7.31-5.55-7.31-3,0-5.22,2.42-6,4.84a6.66,6.66,0,0,0-.39,2.37V288h-4.73Z" transform="translate(-197.5 -71.5)"/><path d="M2257.69,275.57c.11,6.54,4.29,9.24,9.13,9.24a17.5,17.5,0,0,0,7.37-1.37l.83,3.46a21.56,21.56,0,0,1-8.85,1.65c-8.19,0-13.09-5.39-13.09-13.42s4.73-14.35,12.48-14.35c8.69,0,11,7.64,11,12.54a18.29,18.29,0,0,1-.17,2.25Zm14.19-3.46c.06-3.08-1.26-7.86-6.71-7.86-4.89,0-7,4.51-7.42,7.86Z" transform="translate(-197.5 -71.5)"/><path d="M2288.38,253.74v7.64h6.93v3.68h-6.93v14.35c0,3.3.93,5.17,3.63,5.17a10.75,10.75,0,0,0,2.8-.33l.22,3.63a11.83,11.83,0,0,1-4.29.66,6.71,6.71,0,0,1-5.22-2c-1.37-1.43-1.87-3.79-1.87-6.93V265.07h-4.12v-3.68h4.12V255Z" transform="translate(-197.5 -71.5)"/><path d="M2300.75,249h4.84v16.61h.11a9,9,0,0,1,3.46-3.41,10,10,0,0,1,4.95-1.37c3.57,0,9.29,2.2,9.29,11.38V288h-4.84V272.71c0-4.29-1.6-7.92-6.16-7.92a7,7,0,0,0-6.49,4.84,5.85,5.85,0,0,0-.33,2.31V288h-4.84Z" transform="translate(-197.5 -71.5)"/><path d="M2334,275.57c.11,6.54,4.29,9.24,9.13,9.24a17.51,17.51,0,0,0,7.37-1.37l.83,3.46a21.57,21.57,0,0,1-8.85,1.65c-8.19,0-13.09-5.39-13.09-13.42s4.73-14.35,12.48-14.35c8.69,0,11,7.64,11,12.54a18.33,18.33,0,0,1-.16,2.25Zm14.19-3.46c.05-3.08-1.27-7.86-6.71-7.86-4.89,0-7,4.51-7.42,7.86Z" transform="translate(-197.5 -71.5)"/><path d="M2381.1,280.74c0,2.75.05,5.17.22,7.26H2377l-.27-4.34h-.11a10,10,0,0,1-8.8,4.95c-4.18,0-9.18-2.31-9.18-11.66V261.38h4.84v14.74c0,5.06,1.54,8.47,5.94,8.47a7,7,0,0,0,6.38-4.4,7.07,7.07,0,0,0,.44-2.47V261.38h4.84Z" transform="translate(-197.5 -71.5)"/><path d="M2388.48,283.05a12.68,12.68,0,0,0,6.38,1.92c3.52,0,5.17-1.76,5.17-4s-1.37-3.57-4.95-4.89c-4.79-1.7-7-4.34-7-7.53,0-4.29,3.46-7.81,9.18-7.81a13.29,13.29,0,0,1,6.54,1.65l-1.21,3.52a10.36,10.36,0,0,0-5.44-1.54c-2.86,0-4.45,1.65-4.45,3.63,0,2.2,1.59,3.19,5.06,4.51,4.62,1.76,7,4.07,7,8,0,4.67-3.63,8-10,8a15.18,15.18,0,0,1-7.48-1.81Z" transform="translate(-197.5 -71.5)"/></g><g id="WeaveFluxAgent"><rect class="cls-1" x="1530.5" y="522.5" width="333" height="162"/><path d="M1771.2,648l-9.4-37.07h5.06l4.4,18.75c1.1,4.62,2.09,9.24,2.75,12.81h.11c.6-3.68,1.76-8.08,3-12.87l4.95-18.7h5l4.51,18.81c1,4.4,2,8.8,2.58,12.7h.11c.77-4.07,1.81-8.19,3-12.81l4.89-18.7h4.89L1796.55,648h-5l-4.67-19.3a111.56,111.56,0,0,1-2.42-12.1h-.11a115.87,115.87,0,0,1-2.86,12.1L1776.2,648Z" transform="translate(-197.5 -71.5)"/><path d="M1812.4,635.57c.11,6.54,4.29,9.24,9.13,9.24a17.51,17.51,0,0,0,7.37-1.37l.83,3.46a21.57,21.57,0,0,1-8.85,1.65c-8.19,0-13.09-5.39-13.09-13.42s4.73-14.35,12.48-14.35c8.69,0,11,7.64,11,12.54a18.33,18.33,0,0,1-.16,2.25Zm14.19-3.46c.05-3.08-1.27-7.86-6.71-7.86-4.89,0-7,4.51-7.42,7.86Z" transform="translate(-197.5 -71.5)"/><path d="M1852,648l-.38-3.35h-.17a9.91,9.91,0,0,1-8.14,4c-5.39,0-8.14-3.79-8.14-7.64,0-6.43,5.72-10,16-9.9v-.55c0-2.2-.6-6.16-6-6.16a13.26,13.26,0,0,0-6.93,2l-1.1-3.19a16.52,16.52,0,0,1,8.74-2.37c8.14,0,10.12,5.55,10.12,10.89v10a37.46,37.46,0,0,0,.44,6.38Zm-.71-13.58c-5.28-.11-11.27.83-11.27,6a4.28,4.28,0,0,0,4.56,4.62,6.62,6.62,0,0,0,6.43-4.45,5.08,5.08,0,0,0,.27-1.54Z" transform="translate(-197.5 -71.5)"/><path d="M1865.2,621.38l5.22,15a69,69,0,0,1,2.14,6.82h.17c.6-2.2,1.37-4.4,2.25-6.82l5.17-15h5.06L1874.76,648h-4.62L1860,621.38Z" transform="translate(-197.5 -71.5)"/><path d="M1891.92,635.57c.11,6.54,4.29,9.24,9.13,9.24a17.5,17.5,0,0,0,7.37-1.37l.83,3.46a21.56,21.56,0,0,1-8.85,1.65c-8.19,0-13.09-5.39-13.09-13.42s4.73-14.35,12.48-14.35c8.69,0,11,7.64,11,12.54a18.29,18.29,0,0,1-.17,2.25Zm14.19-3.46c.06-3.08-1.26-7.86-6.71-7.86-4.89,0-7,4.51-7.42,7.86Z" transform="translate(-197.5 -71.5)"/><path d="M1928.61,610.93h20v4h-15.18v12.32h14v4h-14V648h-4.78Z" transform="translate(-197.5 -71.5)"/><path d="M1954.29,609h4.84v39h-4.84Z" transform="translate(-197.5 -71.5)"/><path d="M1989.55,640.74c0,2.75.05,5.17.22,7.26h-4.29l-.28-4.34h-.11a10,10,0,0,1-8.8,4.95c-4.18,0-9.18-2.31-9.18-11.66V621.38h4.84v14.74c0,5.06,1.54,8.47,5.94,8.47a7,7,0,0,0,6.38-4.4,7.09,7.09,0,0,0,.44-2.47V621.38h4.84Z" transform="translate(-197.5 -71.5)"/><path d="M1999.83,621.38l3.79,5.72c1,1.49,1.82,2.86,2.7,4.34h.17c.88-1.59,1.76-3,2.64-4.4l3.74-5.66h5.22L2009,634.25l9.35,13.75h-5.5l-3.9-6c-1-1.54-1.92-3-2.86-4.62H2006c-.88,1.59-1.81,3-2.8,4.62l-3.85,6H1994l9.46-13.58-9-13Z" transform="translate(-197.5 -71.5)"/><path d="M1842.09,714l-.38-3.35h-.17a9.91,9.91,0,0,1-8.14,4c-5.39,0-8.14-3.79-8.14-7.64,0-6.43,5.72-10,16-9.9v-.55c0-2.2-.6-6.16-6-6.16a13.26,13.26,0,0,0-6.93,2l-1.1-3.19a16.52,16.52,0,0,1,8.74-2.37c8.14,0,10.12,5.55,10.12,10.89v10a37.46,37.46,0,0,0,.44,6.38Zm-.71-13.58c-5.28-.11-11.27.83-11.27,6a4.28,4.28,0,0,0,4.56,4.62,6.62,6.62,0,0,0,6.43-4.45,5.05,5.05,0,0,0,.28-1.54Z" transform="translate(-197.5 -71.5)"/><path d="M1876.8,687.38c-.11,1.92-.22,4.07-.22,7.31v15.45c0,6.1-1.21,9.84-3.79,12.15s-6.32,3.19-9.68,3.19c-3.19,0-6.71-.77-8.85-2.2l1.21-3.68a15,15,0,0,0,7.81,2.09c5,0,8.58-2.58,8.58-9.29v-3h-.11a9.5,9.5,0,0,1-8.47,4.45c-6.6,0-11.33-5.61-11.33-13,0-9,5.88-14.13,12-14.13,4.62,0,7.15,2.42,8.3,4.62h.11l.22-4Zm-5,10.5a6.87,6.87,0,0,0-.28-2.2,7,7,0,0,0-6.76-5.11c-4.62,0-7.92,3.9-7.92,10.06,0,5.22,2.64,9.57,7.87,9.57a7.07,7.07,0,0,0,6.71-4.95,8.43,8.43,0,0,0,.38-2.58Z" transform="translate(-197.5 -71.5)"/><path d="M1887.3,701.57c.11,6.54,4.29,9.24,9.13,9.24a17.51,17.51,0,0,0,7.37-1.37l.82,3.46a21.57,21.57,0,0,1-8.85,1.65c-8.19,0-13.09-5.39-13.09-13.42s4.73-14.35,12.48-14.35c8.69,0,11,7.64,11,12.54a18.29,18.29,0,0,1-.17,2.25Zm14.19-3.46c.05-3.08-1.26-7.86-6.71-7.86-4.89,0-7,4.51-7.42,7.86Z" transform="translate(-197.5 -71.5)"/><path d="M1912.16,694.59c0-2.75-.05-5-.22-7.2h4.29l.27,4.4h.11a9.79,9.79,0,0,1,8.8-5c3.68,0,9.4,2.2,9.4,11.33V714H1930V698.66c0-4.29-1.59-7.86-6.16-7.86a6.88,6.88,0,0,0-6.49,4.95A7,7,0,0,0,1917,698v16h-4.84Z" transform="translate(-197.5 -71.5)"/><path d="M1948.3,679.74v7.64h6.93v3.68h-6.93v14.35c0,3.3.93,5.17,3.63,5.17a10.77,10.77,0,0,0,2.8-.33l.22,3.63a11.83,11.83,0,0,1-4.29.66,6.71,6.71,0,0,1-5.22-2c-1.37-1.43-1.87-3.79-1.87-6.93V691.07h-4.12v-3.68h4.13V681Z" transform="translate(-197.5 -71.5)"/></g><g id="ClusterWeaveScopeProbe"><rect class="cls-1" x="1530.5" y="288.5" width="333" height="171"/><path d="M1757.1,423l-9.4-37.07h5.06l4.4,18.75c1.1,4.62,2.09,9.24,2.75,12.81h.11c.6-3.68,1.76-8.08,3-12.87l4.95-18.7h5l4.51,18.81c1,4.4,2,8.8,2.58,12.7h.11c.77-4.07,1.81-8.19,3-12.81l4.89-18.7H1793L1782.45,423h-5l-4.67-19.3a111.56,111.56,0,0,1-2.42-12.1h-.11a115.87,115.87,0,0,1-2.86,12.1L1762.1,423Z" transform="translate(-197.5 -71.5)"/><path d="M1798.3,410.57c.11,6.54,4.29,9.24,9.13,9.24a17.51,17.51,0,0,0,7.37-1.37l.83,3.46a21.57,21.57,0,0,1-8.85,1.65c-8.19,0-13.09-5.39-13.09-13.42s4.73-14.35,12.48-14.35c8.69,0,11,7.64,11,12.54a18.33,18.33,0,0,1-.16,2.25Zm14.19-3.46c.05-3.08-1.27-7.86-6.71-7.86-4.89,0-7,4.51-7.42,7.86Z" transform="translate(-197.5 -71.5)"/><path d="M1837.89,423l-.38-3.35h-.17a9.91,9.91,0,0,1-8.14,4c-5.39,0-8.14-3.79-8.14-7.64,0-6.43,5.72-10,16-9.9v-.55c0-2.2-.6-6.16-6-6.16a13.26,13.26,0,0,0-6.93,2l-1.1-3.19a16.52,16.52,0,0,1,8.74-2.37c8.14,0,10.12,5.55,10.12,10.89v10a37.46,37.46,0,0,0,.44,6.38Zm-.71-13.58c-5.28-.11-11.27.83-11.27,6a4.28,4.28,0,0,0,4.56,4.62,6.62,6.62,0,0,0,6.43-4.45,5.08,5.08,0,0,0,.27-1.54Z" transform="translate(-197.5 -71.5)"/><path d="M1851.1,396.38l5.22,15a69,69,0,0,1,2.14,6.82h.17c.6-2.2,1.37-4.4,2.25-6.82l5.17-15h5.06L1860.66,423H1856l-10.12-26.62Z" transform="translate(-197.5 -71.5)"/><path d="M1877.82,410.57c.11,6.54,4.29,9.24,9.13,9.24a17.5,17.5,0,0,0,7.37-1.37l.83,3.46a21.56,21.56,0,0,1-8.85,1.65c-8.19,0-13.09-5.39-13.09-13.42s4.73-14.35,12.48-14.35c8.69,0,11,7.64,11,12.54a18.29,18.29,0,0,1-.17,2.25Zm14.19-3.46c.06-3.08-1.26-7.86-6.71-7.86-4.89,0-7,4.51-7.42,7.86Z" transform="translate(-197.5 -71.5)"/><path d="M1913.85,417.17a17,17,0,0,0,8.58,2.42c4.89,0,7.75-2.58,7.75-6.32,0-3.46-2-5.44-7-7.37-6-2.14-9.79-5.28-9.79-10.5,0-5.77,4.78-10.06,12-10.06a16.84,16.84,0,0,1,8.19,1.81l-1.32,3.9a14.76,14.76,0,0,0-7-1.76c-5.06,0-7,3-7,5.55,0,3.46,2.25,5.17,7.37,7.15,6.27,2.42,9.46,5.44,9.46,10.89,0,5.72-4.23,10.67-13,10.67-3.58,0-7.48-1-9.46-2.36Z" transform="translate(-197.5 -71.5)"/><path d="M1960.76,422a17.83,17.83,0,0,1-7.64,1.54c-8,0-13.25-5.44-13.25-13.58s5.61-14.13,14.3-14.13a16.19,16.19,0,0,1,6.71,1.37l-1.1,3.74a11.22,11.22,0,0,0-5.61-1.26c-6.1,0-9.4,4.51-9.4,10.06,0,6.16,4,10,9.24,10a13.76,13.76,0,0,0,5.94-1.32Z" transform="translate(-197.5 -71.5)"/><path d="M1990.19,409.47c0,9.84-6.82,14.13-13.25,14.13-7.2,0-12.76-5.28-12.76-13.69,0-8.91,5.83-14.13,13.2-14.13C1985,395.78,1990.19,401.33,1990.19,409.47Zm-21.12.28c0,5.83,3.35,10.23,8.08,10.23s8.08-4.34,8.08-10.34c0-4.51-2.25-10.23-8-10.23S1969.07,404.69,1969.07,409.75Z" transform="translate(-197.5 -71.5)"/><path d="M1996.29,405.07c0-3.41-.11-6.16-.22-8.69h4.34l.22,4.56h.11a10.46,10.46,0,0,1,9.46-5.17c6.43,0,11.27,5.44,11.27,13.53,0,9.57-5.83,14.3-12.1,14.3a9.34,9.34,0,0,1-8.19-4.18h-.11v14.46h-4.78Zm4.78,7.09a10.88,10.88,0,0,0,.22,2,7.47,7.47,0,0,0,7.26,5.66c5.12,0,8.08-4.18,8.08-10.28,0-5.33-2.8-9.9-7.92-9.9a7.72,7.72,0,0,0-7.31,6,7.85,7.85,0,0,0-.33,2Z" transform="translate(-197.5 -71.5)"/><path d="M2030.28,410.57c.11,6.54,4.29,9.24,9.13,9.24a17.51,17.51,0,0,0,7.37-1.37l.82,3.46a21.57,21.57,0,0,1-8.85,1.65c-8.19,0-13.09-5.39-13.09-13.42s4.73-14.35,12.48-14.35c8.69,0,11,7.64,11,12.54a18.29,18.29,0,0,1-.17,2.25Zm14.19-3.46c.05-3.08-1.26-7.86-6.71-7.86-4.89,0-7,4.51-7.42,7.86Z" transform="translate(-197.5 -71.5)"/><path d="M1834.13,471.07c0-3.41-.11-6.16-.22-8.69h4.34l.22,4.56h.11a10.47,10.47,0,0,1,9.46-5.17c6.43,0,11.27,5.44,11.27,13.53,0,9.57-5.83,14.3-12.1,14.3a9.33,9.33,0,0,1-8.19-4.18h-.11v14.46h-4.78Zm4.78,7.09a10.88,10.88,0,0,0,.22,2,7.47,7.47,0,0,0,7.26,5.66c5.11,0,8.08-4.18,8.08-10.28,0-5.33-2.8-9.9-7.92-9.9a7.72,7.72,0,0,0-7.31,6,7.9,7.9,0,0,0-.33,2Z" transform="translate(-197.5 -71.5)"/><path d="M1865.42,470.69c0-3.13-.05-5.83-.22-8.3h4.23l.17,5.22h.22c1.21-3.57,4.12-5.83,7.37-5.83a5.26,5.26,0,0,1,1.38.17v4.56a7.3,7.3,0,0,0-1.65-.17c-3.41,0-5.83,2.58-6.49,6.21a13.57,13.57,0,0,0-.22,2.25V489h-4.79Z" transform="translate(-197.5 -71.5)"/><path d="M1906.94,475.47c0,9.84-6.82,14.13-13.25,14.13-7.21,0-12.76-5.28-12.76-13.69,0-8.91,5.83-14.13,13.2-14.13C1901.78,461.78,1906.94,467.33,1906.94,475.47Zm-21.12.28c0,5.83,3.36,10.23,8.08,10.23s8.08-4.34,8.08-10.34c0-4.51-2.25-10.23-8-10.23S1885.83,470.69,1885.83,475.75Z" transform="translate(-197.5 -71.5)"/><path d="M1912.83,489c.11-1.81.22-4.51.22-6.87V450h4.78v16.72h.11c1.71-3,4.78-4.89,9.07-4.89,6.6,0,11.27,5.5,11.22,13.58,0,9.51-6,14.24-11.93,14.24a9.48,9.48,0,0,1-8.91-5h-.17L1917,489Zm5-10.67a9,9,0,0,0,.22,1.76,7.47,7.47,0,0,0,7.26,5.67c5.06,0,8.08-4.12,8.08-10.23,0-5.33-2.75-9.9-7.92-9.9a7.72,7.72,0,0,0-7.37,5.94,9.58,9.58,0,0,0-.28,2Z" transform="translate(-197.5 -71.5)"/><path d="M1947,476.57c.11,6.54,4.29,9.24,9.13,9.24a17.5,17.5,0,0,0,7.37-1.37l.82,3.46a21.56,21.56,0,0,1-8.85,1.65c-8.19,0-13.09-5.39-13.09-13.42s4.73-14.35,12.48-14.35c8.69,0,11,7.64,11,12.54a18.25,18.25,0,0,1-.17,2.25Zm14.19-3.46c.05-3.08-1.26-7.86-6.71-7.86-4.89,0-7,4.51-7.42,7.86Z" transform="translate(-197.5 -71.5)"/></g><g id="ArrowOrchestratorPrometheus"><g id="ArrowOrchestratorPrometheus-2" data-name="ArrowOrchestratorPrometheus"><line class="cls-3" x1="1971.5" y1="267.64" x2="1971.5" y2="783.5"/><path d="M2169,315c-4.21,11.36-11.41,25.45-19,34.19l19-6.88,19,6.88C2180.4,340.45,2173.21,326.36,2169,315Z" transform="translate(-197.5 -71.5)"/></g></g><g id="ClusterWeaveNet"><rect class="cls-1" x="1881.5" y="288.5" width="333" height="81"/><path d="M2137.53,414l-9.4-37.07h5.06l4.4,18.75c1.1,4.62,2.09,9.24,2.75,12.81h.11c.61-3.68,1.76-8.08,3-12.87l4.95-18.7h5l4.51,18.81c1,4.4,2,8.8,2.58,12.7h.11c.77-4.07,1.81-8.19,3-12.81l4.89-18.7h4.89L2162.88,414h-5l-4.67-19.3a111.77,111.77,0,0,1-2.42-12.1h-.11a115.84,115.84,0,0,1-2.86,12.1l-5.28,19.3Z" transform="translate(-197.5 -71.5)"/><path d="M2178.72,401.57c.11,6.54,4.29,9.24,9.13,9.24a17.5,17.5,0,0,0,7.37-1.37l.82,3.46a21.56,21.56,0,0,1-8.85,1.65c-8.19,0-13.09-5.39-13.09-13.42s4.73-14.35,12.48-14.35c8.69,0,11,7.64,11,12.54a18.25,18.25,0,0,1-.17,2.25Zm14.19-3.46c.05-3.08-1.26-7.86-6.71-7.86-4.89,0-7,4.51-7.42,7.86Z" transform="translate(-197.5 -71.5)"/><path d="M2218.32,414l-.38-3.35h-.17a9.91,9.91,0,0,1-8.14,4c-5.39,0-8.14-3.79-8.14-7.64,0-6.43,5.72-10,16-9.9v-.55c0-2.2-.61-6.16-6-6.16a13.26,13.26,0,0,0-6.93,2l-1.1-3.19a16.52,16.52,0,0,1,8.74-2.37c8.14,0,10.12,5.55,10.12,10.89v10a37.46,37.46,0,0,0,.44,6.38Zm-.71-13.58c-5.28-.11-11.27.83-11.27,6a4.28,4.28,0,0,0,4.56,4.62,6.62,6.62,0,0,0,6.43-4.45,5,5,0,0,0,.28-1.54Z" transform="translate(-197.5 -71.5)"/><path d="M2231.52,387.38l5.22,15a68.22,68.22,0,0,1,2.15,6.82h.17c.6-2.2,1.38-4.4,2.25-6.82l5.17-15h5.06L2241.09,414h-4.62l-10.12-26.62Z" transform="translate(-197.5 -71.5)"/><path d="M2258.25,401.57c.11,6.54,4.29,9.24,9.13,9.24a17.51,17.51,0,0,0,7.37-1.37l.82,3.46a21.57,21.57,0,0,1-8.85,1.65c-8.19,0-13.09-5.39-13.09-13.42s4.73-14.35,12.48-14.35c8.69,0,11,7.64,11,12.54a18.29,18.29,0,0,1-.17,2.25Zm14.19-3.46c.05-3.08-1.26-7.86-6.71-7.86-4.89,0-7,4.51-7.42,7.86Z" transform="translate(-197.5 -71.5)"/><path d="M2294.93,414V376.93h5.22L2312,395.69a104.94,104.94,0,0,1,6.65,12l.11-.05c-.44-4.95-.55-9.46-.55-15.23V376.93h4.51V414h-4.84l-11.77-18.81a117.76,117.76,0,0,1-6.93-12.37l-.17.05c.28,4.67.38,9.13.38,15.29V414Z" transform="translate(-197.5 -71.5)"/><path d="M2333.65,401.57c.11,6.54,4.29,9.24,9.13,9.24a17.51,17.51,0,0,0,7.37-1.37l.83,3.46a21.57,21.57,0,0,1-8.85,1.65c-8.19,0-13.09-5.39-13.09-13.42s4.73-14.35,12.48-14.35c8.69,0,11,7.64,11,12.54a18.33,18.33,0,0,1-.16,2.25Zm14.19-3.46c.05-3.08-1.27-7.86-6.71-7.86-4.89,0-7,4.51-7.42,7.86Z" transform="translate(-197.5 -71.5)"/><path d="M2364.34,379.74v7.64h6.93v3.68h-6.93v14.35c0,3.3.94,5.17,3.63,5.17a10.76,10.76,0,0,0,2.8-.33l.22,3.63a11.83,11.83,0,0,1-4.29.66,6.71,6.71,0,0,1-5.22-2c-1.37-1.43-1.87-3.79-1.87-6.93V391.07h-4.12v-3.68h4.13V381Z" transform="translate(-197.5 -71.5)"/></g><g id="ClusterWeaveNPC"><rect class="cls-1" x="1881.5" y="378.5" width="333" height="81"/><path d="M2129.83,504l-9.4-37.07h5.06l4.4,18.75c1.1,4.62,2.09,9.24,2.75,12.81h.11c.6-3.68,1.76-8.08,3-12.87l4.95-18.7h5l4.51,18.81c1,4.4,2,8.8,2.58,12.7h.11c.77-4.07,1.81-8.19,3-12.81l4.89-18.7h4.89L2155.18,504h-5l-4.67-19.3a111.8,111.8,0,0,1-2.42-12.1H2143a115.84,115.84,0,0,1-2.86,12.1l-5.28,19.3Z" transform="translate(-197.5 -71.5)"/><path d="M2171,491.57c.11,6.54,4.29,9.24,9.13,9.24a17.51,17.51,0,0,0,7.37-1.37l.82,3.46a21.57,21.57,0,0,1-8.85,1.65c-8.19,0-13.09-5.39-13.09-13.42s4.73-14.35,12.48-14.35c8.69,0,11,7.64,11,12.54a18.29,18.29,0,0,1-.17,2.25Zm14.19-3.46c.05-3.08-1.26-7.86-6.71-7.86-4.89,0-7,4.51-7.42,7.86Z" transform="translate(-197.5 -71.5)"/><path d="M2210.62,504l-.38-3.35h-.17a9.91,9.91,0,0,1-8.14,4c-5.39,0-8.14-3.79-8.14-7.64,0-6.43,5.72-10,16-9.9v-.55c0-2.2-.6-6.16-6-6.16a13.26,13.26,0,0,0-6.93,2l-1.1-3.19a16.52,16.52,0,0,1,8.74-2.37c8.14,0,10.12,5.55,10.12,10.89v10A37.46,37.46,0,0,0,2215,504Zm-.71-13.58c-5.28-.11-11.27.83-11.27,6a4.28,4.28,0,0,0,4.56,4.62,6.62,6.62,0,0,0,6.43-4.45,5.05,5.05,0,0,0,.28-1.54Z" transform="translate(-197.5 -71.5)"/><path d="M2223.82,477.38l5.22,15a68.46,68.46,0,0,1,2.14,6.82h.17c.6-2.2,1.38-4.4,2.25-6.82l5.17-15h5.06L2233.39,504h-4.62l-10.12-26.62Z" transform="translate(-197.5 -71.5)"/><path d="M2250.55,491.57c.11,6.54,4.29,9.24,9.13,9.24a17.51,17.51,0,0,0,7.37-1.37l.83,3.46a21.57,21.57,0,0,1-8.85,1.65c-8.19,0-13.09-5.39-13.09-13.42s4.73-14.35,12.48-14.35c8.69,0,11,7.64,11,12.54a18.33,18.33,0,0,1-.16,2.25Zm14.19-3.46c.05-3.08-1.27-7.86-6.71-7.86-4.89,0-7,4.51-7.42,7.86Z" transform="translate(-197.5 -71.5)"/><path d="M2287.23,504V466.93h5.22l11.88,18.75a105.07,105.07,0,0,1,6.65,12l.11-.05c-.44-4.95-.55-9.46-.55-15.23V466.93h4.51V504h-4.84l-11.77-18.81a117.78,117.78,0,0,1-6.93-12.37l-.16.05c.27,4.67.38,9.13.38,15.29V504Z" transform="translate(-197.5 -71.5)"/><path d="M2323.42,467.38a55.48,55.48,0,0,1,9.18-.71c4.73,0,8.19,1.1,10.39,3.08a10,10,0,0,1,3.24,7.75,10.91,10.91,0,0,1-2.86,7.92c-2.53,2.7-6.65,4.07-11.33,4.07a16.49,16.49,0,0,1-3.85-.33V504h-4.79Zm4.79,17.87a16,16,0,0,0,4,.39c5.77,0,9.29-2.8,9.29-7.92,0-4.89-3.46-7.26-8.74-7.26a20,20,0,0,0-4.51.39Z" transform="translate(-197.5 -71.5)"/><path d="M2378.59,502.79a23.75,23.75,0,0,1-9.79,1.76c-10.45,0-18.31-6.6-18.31-18.75,0-11.6,7.86-19.47,19.36-19.47a19.88,19.88,0,0,1,8.8,1.65l-1.16,3.91a17.41,17.41,0,0,0-7.48-1.54c-8.69,0-14.46,5.55-14.46,15.29,0,9.07,5.22,14.9,14.24,14.9a19.16,19.16,0,0,0,7.81-1.54Z" transform="translate(-197.5 -71.5)"/></g><g id="ClusterApp"><rect class="cls-1" x="1998.5" y="513.5" width="216" height="144"/><rect class="cls-1" x="2007.5" y="522.5" width="216" height="144"/><rect class="cls-1" x="2016.5" y="531.5" width="216" height="144"/><rect class="cls-1" x="2025.5" y="540.5" width="216" height="144"/><rect class="cls-1" x="2034.5" y="549.5" width="216" height="144"/><rect class="cls-1" x="2043.5" y="558.5" width="216" height="144"/><path d="M2314.17,708.34,2310.32,720h-4.95L2318,682.93h5.77L2336.39,720h-5.11l-4-11.66Zm12.15-3.74-3.63-10.67c-.82-2.42-1.37-4.62-1.92-6.76h-.11c-.55,2.2-1.15,4.46-1.87,6.71l-3.63,10.72Z" transform="translate(-197.5 -71.5)"/><path d="M2341.51,702.07c0-3.41-.11-6.16-.22-8.69h4.34l.22,4.56h.11a10.46,10.46,0,0,1,9.46-5.17c6.43,0,11.27,5.44,11.27,13.53,0,9.57-5.83,14.3-12.1,14.3a9.33,9.33,0,0,1-8.19-4.18h-.11v14.46h-4.79Zm4.79,7.09a10.88,10.88,0,0,0,.22,2,7.47,7.47,0,0,0,7.26,5.66c5.11,0,8.08-4.18,8.08-10.28,0-5.33-2.8-9.9-7.92-9.9a7.72,7.72,0,0,0-7.31,6,7.81,7.81,0,0,0-.33,2Z" transform="translate(-197.5 -71.5)"/><path d="M2372.8,702.07c0-3.41-.11-6.16-.22-8.69h4.34l.22,4.56h.11a10.47,10.47,0,0,1,9.46-5.17c6.43,0,11.27,5.44,11.27,13.53,0,9.57-5.83,14.3-12.1,14.3a9.33,9.33,0,0,1-8.19-4.18h-.11v14.46h-4.78Zm4.78,7.09a10.88,10.88,0,0,0,.22,2,7.47,7.47,0,0,0,7.26,5.66c5.11,0,8.08-4.18,8.08-10.28,0-5.33-2.8-9.9-7.92-9.9a7.72,7.72,0,0,0-7.31,6,7.9,7.9,0,0,0-.33,2Z" transform="translate(-197.5 -71.5)"/></g><g id="ArrowFluxClusterAgent"><line class="cls-4" x1="1386.5" y1="648.5" x2="1521.39" y2="648.5"/><path d="M1737,720c-8.52,3.16-19.09,8.55-25.64,14.27l5.16-14.27-5.16-14.26C1717.91,711.45,1728.48,716.84,1737,720Z" transform="translate(-197.5 -71.5)"/></g><g id="WeaveScope"><rect class="cls-1" x="333.5" y="126.5" width="189" height="171"/><path d="M555.33,261l-9.4-37.07H551l4.4,18.75c1.1,4.62,2.09,9.24,2.75,12.81h.11c.6-3.68,1.76-8.08,3-12.87l4.95-18.7h5l4.51,18.81c1,4.4,2,8.8,2.58,12.7h.11c.77-4.07,1.81-8.19,3-12.81l4.89-18.7h4.89L580.68,261h-5L571,241.7a111.55,111.55,0,0,1-2.42-12.1h-.11a115.85,115.85,0,0,1-2.86,12.1L560.33,261Z" transform="translate(-197.5 -71.5)"/><path d="M596.52,248.57c.11,6.54,4.29,9.24,9.13,9.24a17.51,17.51,0,0,0,7.37-1.37l.82,3.46a21.56,21.56,0,0,1-8.85,1.65c-8.19,0-13.09-5.39-13.09-13.42s4.73-14.35,12.48-14.35c8.69,0,11,7.64,11,12.54a18.29,18.29,0,0,1-.17,2.25Zm14.19-3.46c.06-3.08-1.26-7.86-6.71-7.86-4.89,0-7,4.51-7.42,7.86Z" transform="translate(-197.5 -71.5)"/><path d="M636.12,261l-.38-3.35h-.17a9.91,9.91,0,0,1-8.14,4c-5.39,0-8.14-3.79-8.14-7.64,0-6.43,5.72-10,16-9.9v-.55c0-2.2-.6-6.16-6-6.16a13.26,13.26,0,0,0-6.93,2l-1.1-3.19a16.52,16.52,0,0,1,8.74-2.37c8.14,0,10.12,5.55,10.12,10.89v10a37.46,37.46,0,0,0,.44,6.38Zm-.71-13.58c-5.28-.11-11.27.83-11.27,6A4.28,4.28,0,0,0,628.7,258a6.62,6.62,0,0,0,6.43-4.45,5.05,5.05,0,0,0,.27-1.54Z" transform="translate(-197.5 -71.5)"/><path d="M649.32,234.38l5.22,15a68.6,68.6,0,0,1,2.15,6.82h.16c.6-2.2,1.38-4.4,2.25-6.82l5.17-15h5.06L658.89,261h-4.62l-10.12-26.62Z" transform="translate(-197.5 -71.5)"/><path d="M676.05,248.57c.11,6.54,4.29,9.24,9.13,9.24a17.51,17.51,0,0,0,7.37-1.37l.82,3.46a21.56,21.56,0,0,1-8.85,1.65c-8.19,0-13.09-5.39-13.09-13.42s4.73-14.35,12.48-14.35c8.69,0,11,7.64,11,12.54a18.29,18.29,0,0,1-.17,2.25Zm14.19-3.46c.05-3.08-1.27-7.86-6.71-7.86-4.89,0-7,4.51-7.42,7.86Z" transform="translate(-197.5 -71.5)"/><path d="M554.12,321.17a17,17,0,0,0,8.58,2.42c4.89,0,7.75-2.58,7.75-6.32,0-3.46-2-5.44-7-7.37-6-2.14-9.79-5.28-9.79-10.5,0-5.77,4.78-10.06,12-10.06a16.84,16.84,0,0,1,8.19,1.81l-1.32,3.9a14.77,14.77,0,0,0-7-1.76c-5.06,0-7,3-7,5.55,0,3.46,2.25,5.17,7.37,7.15,6.27,2.42,9.46,5.44,9.46,10.89,0,5.72-4.23,10.67-13,10.67-3.57,0-7.48-1-9.46-2.36Z" transform="translate(-197.5 -71.5)"/><path d="M601,326a17.82,17.82,0,0,1-7.64,1.54c-8,0-13.25-5.44-13.25-13.58s5.61-14.13,14.3-14.13a16.19,16.19,0,0,1,6.71,1.37l-1.1,3.74a11.22,11.22,0,0,0-5.61-1.26c-6.1,0-9.4,4.51-9.4,10.06,0,6.16,4,10,9.24,10a13.76,13.76,0,0,0,5.94-1.32Z" transform="translate(-197.5 -71.5)"/><path d="M630.46,313.47c0,9.84-6.82,14.13-13.25,14.13-7.2,0-12.76-5.28-12.76-13.69,0-8.91,5.83-14.13,13.2-14.13C625.29,299.78,630.46,305.33,630.46,313.47Zm-21.12.28c0,5.83,3.35,10.23,8.08,10.23s8.08-4.34,8.08-10.34c0-4.51-2.25-10.23-8-10.23S609.34,308.69,609.34,313.75Z" transform="translate(-197.5 -71.5)"/><path d="M636.57,309.07c0-3.41-.11-6.16-.22-8.69h4.34l.22,4.56H641a10.46,10.46,0,0,1,9.46-5.17c6.43,0,11.27,5.44,11.27,13.53,0,9.57-5.83,14.3-12.1,14.3a9.33,9.33,0,0,1-8.19-4.18h-.11v14.46h-4.78Zm4.78,7.09a10.92,10.92,0,0,0,.22,2,7.47,7.47,0,0,0,7.26,5.66c5.11,0,8.08-4.18,8.08-10.28,0-5.33-2.8-9.9-7.92-9.9a7.72,7.72,0,0,0-7.31,6,7.85,7.85,0,0,0-.33,2Z" transform="translate(-197.5 -71.5)"/><path d="M670.55,314.57c.11,6.54,4.29,9.24,9.13,9.24a17.51,17.51,0,0,0,7.37-1.37l.82,3.46a21.56,21.56,0,0,1-8.85,1.65c-8.19,0-13.09-5.39-13.09-13.42s4.73-14.35,12.48-14.35c8.69,0,11,7.64,11,12.54a18.29,18.29,0,0,1-.17,2.25Zm14.19-3.46c.05-3.08-1.27-7.86-6.71-7.86-4.89,0-7,4.51-7.42,7.86Z" transform="translate(-197.5 -71.5)"/></g><g id="WeavePrism"><rect class="cls-1" x="1143.5" y="90.5" width="189" height="171"/><path d="M1365.33,225l-9.4-37.07H1361l4.4,18.75c1.1,4.62,2.09,9.24,2.75,12.81h.11c.6-3.68,1.76-8.08,3-12.87l4.95-18.7h5l4.51,18.81c1,4.4,2,8.8,2.58,12.7h.11c.77-4.07,1.81-8.19,3-12.81l4.89-18.7h4.89L1390.68,225h-5L1381,205.7a111.8,111.8,0,0,1-2.42-12.1h-.11a115.84,115.84,0,0,1-2.86,12.1l-5.28,19.3Z" transform="translate(-197.5 -71.5)"/><path d="M1406.53,212.57c.11,6.54,4.29,9.24,9.13,9.24a17.51,17.51,0,0,0,7.37-1.37l.82,3.46a21.57,21.57,0,0,1-8.85,1.65c-8.19,0-13.09-5.39-13.09-13.42s4.73-14.35,12.48-14.35c8.69,0,11,7.64,11,12.54a18.29,18.29,0,0,1-.17,2.25Zm14.19-3.46c.05-3.08-1.26-7.86-6.71-7.86-4.89,0-7,4.51-7.42,7.86Z" transform="translate(-197.5 -71.5)"/><path d="M1446.12,225l-.38-3.35h-.17a9.91,9.91,0,0,1-8.14,4c-5.39,0-8.14-3.79-8.14-7.64,0-6.43,5.72-10,16-9.9v-.55c0-2.2-.6-6.16-6-6.16a13.26,13.26,0,0,0-6.93,2l-1.1-3.19a16.52,16.52,0,0,1,8.74-2.37c8.14,0,10.12,5.55,10.12,10.89v10a37.46,37.46,0,0,0,.44,6.38Zm-.71-13.58c-5.28-.11-11.27.83-11.27,6a4.28,4.28,0,0,0,4.56,4.62,6.62,6.62,0,0,0,6.43-4.45,5.05,5.05,0,0,0,.28-1.54Z" transform="translate(-197.5 -71.5)"/><path d="M1459.32,198.38l5.22,15a68.46,68.46,0,0,1,2.14,6.82h.17c.6-2.2,1.38-4.4,2.25-6.82l5.17-15h5.06L1468.89,225h-4.62l-10.12-26.62Z" transform="translate(-197.5 -71.5)"/><path d="M1486.05,212.57c.11,6.54,4.29,9.24,9.13,9.24a17.51,17.51,0,0,0,7.37-1.37l.83,3.46a21.57,21.57,0,0,1-8.85,1.65c-8.19,0-13.09-5.39-13.09-13.42s4.73-14.35,12.48-14.35c8.69,0,11,7.64,11,12.54a18.33,18.33,0,0,1-.16,2.25Zm14.19-3.46c.05-3.08-1.27-7.86-6.71-7.86-4.89,0-7,4.51-7.42,7.86Z" transform="translate(-197.5 -71.5)"/><path d="M1371.63,254.38a55.48,55.48,0,0,1,9.18-.71c4.73,0,8.19,1.1,10.39,3.08a10,10,0,0,1,3.24,7.75,10.91,10.91,0,0,1-2.86,7.92c-2.53,2.7-6.65,4.07-11.33,4.07a16.49,16.49,0,0,1-3.85-.33V291h-4.79Zm4.79,17.87a16,16,0,0,0,4,.39c5.77,0,9.29-2.8,9.29-7.92,0-4.89-3.46-7.26-8.74-7.26a20,20,0,0,0-4.51.39Z" transform="translate(-197.5 -71.5)"/><path d="M1399.84,272.69c0-3.13-.06-5.83-.22-8.3h4.23l.16,5.22h.22c1.21-3.57,4.12-5.83,7.37-5.83a5.26,5.26,0,0,1,1.38.17v4.56a7.32,7.32,0,0,0-1.65-.17c-3.41,0-5.83,2.58-6.49,6.21a13.57,13.57,0,0,0-.22,2.25V291h-4.78Z" transform="translate(-197.5 -71.5)"/><path d="M1423.44,256.9a3,3,0,0,1-6,0,3,3,0,0,1,3-3A2.87,2.87,0,0,1,1423.44,256.9ZM1418,291V264.38h4.84V291Z" transform="translate(-197.5 -71.5)"/><path d="M1430.26,286.05a12.69,12.69,0,0,0,6.38,1.92c3.52,0,5.17-1.76,5.17-4s-1.37-3.57-4.95-4.89c-4.78-1.7-7-4.34-7-7.53,0-4.29,3.46-7.81,9.18-7.81a13.28,13.28,0,0,1,6.54,1.65l-1.21,3.52a10.36,10.36,0,0,0-5.44-1.54c-2.86,0-4.45,1.65-4.45,3.63,0,2.2,1.59,3.19,5.06,4.51,4.62,1.76,7,4.07,7,8,0,4.67-3.63,8-10,8a15.18,15.18,0,0,1-7.48-1.81Z" transform="translate(-197.5 -71.5)"/><path d="M1452.7,271.59c0-2.75-.06-5-.22-7.2h4.23l.22,4.29h.16a9.18,9.18,0,0,1,8.36-4.89,7.87,7.87,0,0,1,7.53,5.33h.11a11,11,0,0,1,3-3.46,9.08,9.08,0,0,1,5.88-1.87c3.52,0,8.74,2.31,8.74,11.55V291H1486V275.93c0-5.11-1.87-8.19-5.77-8.19a6.27,6.27,0,0,0-5.72,4.4,8,8,0,0,0-.38,2.42V291h-4.73V275.05c0-4.23-1.87-7.31-5.55-7.31-3,0-5.22,2.42-6,4.84a6.68,6.68,0,0,0-.38,2.37V291h-4.73Z" transform="translate(-197.5 -71.5)"/></g><g id="ArrowDevWeaveScopeProbe"><g id="ArrowDevWeaveScopeProbe-2" data-name="ArrowDevWeaveScopeProbe"><line class="cls-3" x1="383.24" y1="321.26" x2="324.5" y2="648.5"/><path d="M585,369c-6.16,10.44-15.72,23-24.76,30.29l19.94-3.41L597.68,406C591.73,396.07,587.14,380.92,585,369Z" transform="translate(-197.5 -71.5)"/></g></g><g id="ArrowClusterWeaveScope"><g id="ArrowClusterWeaveScope-2" data-name="ArrowClusterWeaveScope"><line class="cls-3" x1="546.33" y1="238.33" x2="1530.5" y2="396.5"/><path d="M720,306c10.55,6,23.32,15.3,30.74,24.21L747,310.33l9.81-17.69C746.94,298.78,731.88,303.64,720,306Z" transform="translate(-197.5 -71.5)"/></g></g><g id="ArrowClusterWeavePrism"><g id="ArrowClusterWeavePrism-2" data-name="ArrowClusterWeavePrism"><line class="cls-3" x1="1356.64" y1="216.5" x2="1881.5" y2="216.5"/><path d="M1530,288c11.36,4.21,25.45,11.41,34.19,19l-6.88-19,6.88-19C1555.45,276.6,1541.36,283.79,1530,288Z" transform="translate(-197.5 -71.5)"/></g></g><g id="ArrowClusterWeavePrism-3" data-name="ArrowClusterWeavePrism"><g id="ArrowClusterPrometheus"><line class="cls-3" x1="2232.5" y1="267.64" x2="2232.5" y2="558.5"/><path d="M2430,315c-4.21,11.36-11.41,25.45-19,34.19l19-6.88,19,6.88C2441.4,340.45,2434.21,326.36,2430,315Z" transform="translate(-197.5 -71.5)"/></g></g><g id="VCSAppCode"><rect class="cls-1" x="792.5" y="999.5" width="216" height="63"/><path d="M1013.18,1110.06l-2,5.94h-2.52l6.41-18.87h2.94l6.44,18.87h-2.6l-2-5.94Zm6.19-1.9-1.85-5.43c-.42-1.23-.7-2.35-1-3.44h-.06c-.28,1.12-.59,2.27-1,3.42l-1.85,5.46Z" transform="translate(-197.5 -71.5)"/><path d="M1027.1,1106.87c0-1.74-.06-3.14-.11-4.42h2.21l.11,2.32h.06a5.33,5.33,0,0,1,4.82-2.63c3.28,0,5.74,2.77,5.74,6.89,0,4.87-3,7.28-6.16,7.28a4.75,4.75,0,0,1-4.17-2.13h-.06v7.36h-2.44Zm2.44,3.61a5.59,5.59,0,0,0,.11,1,3.8,3.8,0,0,0,3.7,2.88c2.6,0,4.12-2.13,4.12-5.24,0-2.72-1.43-5-4-5a3.93,3.93,0,0,0-3.72,3.05,4,4,0,0,0-.17,1Z" transform="translate(-197.5 -71.5)"/><path d="M1043,1106.87c0-1.74-.06-3.14-.11-4.42h2.21l.11,2.32h.06a5.33,5.33,0,0,1,4.82-2.63c3.28,0,5.74,2.77,5.74,6.89,0,4.87-3,7.28-6.16,7.28a4.75,4.75,0,0,1-4.17-2.13h-.06v7.36H1043Zm2.44,3.61a5.59,5.59,0,0,0,.11,1,3.8,3.8,0,0,0,3.7,2.88c2.6,0,4.12-2.13,4.12-5.24,0-2.72-1.43-5-4-5a3.93,3.93,0,0,0-3.72,3.05,4,4,0,0,0-.17,1Z" transform="translate(-197.5 -71.5)"/><path d="M1074.56,1115.5a9.08,9.08,0,0,1-3.89.78c-4.09,0-6.75-2.77-6.75-6.92a6.89,6.89,0,0,1,7.28-7.2,8.24,8.24,0,0,1,3.42.7l-.56,1.9a5.71,5.71,0,0,0-2.86-.64c-3.11,0-4.79,2.3-4.79,5.12,0,3.14,2,5.07,4.7,5.07a7,7,0,0,0,3-.67Z" transform="translate(-197.5 -71.5)"/><path d="M1089.54,1109.11c0,5-3.47,7.2-6.75,7.2-3.67,0-6.5-2.69-6.5-7,0-4.54,3-7.2,6.72-7.2S1089.54,1105,1089.54,1109.11Zm-10.75.14c0,3,1.71,5.21,4.12,5.21s4.12-2.21,4.12-5.26c0-2.3-1.15-5.21-4.06-5.21S1078.78,1106.68,1078.78,1109.25Z" transform="translate(-197.5 -71.5)"/><path d="M1104.35,1096.12v16.38c0,1.2,0,2.58.11,3.5h-2.21l-.11-2.35h-.06a5,5,0,0,1-4.62,2.66c-3.28,0-5.8-2.77-5.8-6.89,0-4.51,2.77-7.28,6.08-7.28a4.53,4.53,0,0,1,4.09,2.07h.06v-8.09Zm-2.46,11.84a4.36,4.36,0,0,0-.11-1,3.62,3.62,0,0,0-3.56-2.86c-2.55,0-4.06,2.24-4.06,5.24,0,2.74,1.34,5,4,5a3.7,3.7,0,0,0,3.61-2.94,4.28,4.28,0,0,0,.11-1.06Z" transform="translate(-197.5 -71.5)"/><path d="M1109.81,1109.67c.06,3.33,2.18,4.7,4.65,4.7a8.9,8.9,0,0,0,3.75-.7l.42,1.76a11,11,0,0,1-4.51.84c-4.17,0-6.66-2.74-6.66-6.83s2.41-7.31,6.36-7.31c4.42,0,5.6,3.89,5.6,6.38a9.32,9.32,0,0,1-.08,1.15Zm7.22-1.76c0-1.57-.64-4-3.42-4-2.49,0-3.58,2.3-3.78,4Z" transform="translate(-197.5 -71.5)"/></g><g id="VCSPolicySpec"><rect class="cls-1" x="783.5" y="1080.5" width="243" height="63"/><path d="M1004.18,1195.56l-2,5.94H999.7l6.41-18.87h2.94l6.44,18.87h-2.6l-2-5.94Zm6.19-1.9-1.85-5.43c-.42-1.23-.7-2.35-1-3.44h-.06c-.28,1.12-.59,2.27-1,3.42l-1.85,5.46Z" transform="translate(-197.5 -71.5)"/><path d="M1018.1,1192.37c0-1.74-.06-3.14-.11-4.42h2.21l.11,2.32h.06a5.33,5.33,0,0,1,4.82-2.63c3.28,0,5.74,2.77,5.74,6.89,0,4.87-3,7.28-6.16,7.28a4.75,4.75,0,0,1-4.17-2.13h-.06V1207h-2.44Zm2.44,3.61a5.59,5.59,0,0,0,.11,1,3.8,3.8,0,0,0,3.7,2.88c2.6,0,4.12-2.13,4.12-5.24,0-2.72-1.43-5-4-5a3.93,3.93,0,0,0-3.72,3.05,4,4,0,0,0-.17,1Z" transform="translate(-197.5 -71.5)"/><path d="M1034,1192.37c0-1.74-.06-3.14-.11-4.42h2.21l.11,2.32h.06a5.33,5.33,0,0,1,4.82-2.63c3.28,0,5.74,2.77,5.74,6.89,0,4.87-3,7.28-6.16,7.28a4.75,4.75,0,0,1-4.17-2.13h-.06V1207H1034Zm2.44,3.61a5.59,5.59,0,0,0,.11,1,3.8,3.8,0,0,0,3.7,2.88c2.6,0,4.12-2.13,4.12-5.24,0-2.72-1.43-5-4-5a3.93,3.93,0,0,0-3.72,3.05,4,4,0,0,0-.17,1Z" transform="translate(-197.5 -71.5)"/><path d="M1067.79,1201.5c-.53-.53-1-1.06-1.76-1.85a7.73,7.73,0,0,1-5.52,2.16c-3.67,0-5.8-2.46-5.8-5.29,0-2.58,1.54-4.34,3.7-5.52v-.08a6.48,6.48,0,0,1-1.57-3.95,4.58,4.58,0,0,1,4.79-4.65,3.93,3.93,0,0,1,4.17,4c0,2-1.15,3.56-4.14,5v.08c1.6,1.85,3.39,3.92,4.59,5.26a13.83,13.83,0,0,0,1.82-5.52h2.24c-.5,3-1.32,5.32-2.72,7,1,1.06,2,2.13,3.11,3.33Zm-3-3.25c-1.12-1.23-3.22-3.53-5.32-5.94a4.64,4.64,0,0,0-2.44,3.84,3.72,3.72,0,0,0,3.86,3.81A5.27,5.27,0,0,0,1064.83,1198.25Zm-5.74-11.51a5.29,5.29,0,0,0,1.43,3.39c1.9-1.09,3.14-2.1,3.14-3.7a2.22,2.22,0,0,0-2.18-2.44A2.46,2.46,0,0,0,1059.09,1186.74Z" transform="translate(-197.5 -71.5)"/><path d="M1078.77,1192.37c0-1.74-.06-3.14-.11-4.42h2.21l.11,2.32h.06a5.33,5.33,0,0,1,4.82-2.63c3.28,0,5.74,2.77,5.74,6.89,0,4.87-3,7.28-6.16,7.28a4.75,4.75,0,0,1-4.17-2.13h-.06V1207h-2.44Zm2.44,3.61a5.59,5.59,0,0,0,.11,1,3.8,3.8,0,0,0,3.7,2.88c2.6,0,4.12-2.13,4.12-5.24,0-2.72-1.43-5-4-5a3.93,3.93,0,0,0-3.72,3.05,4,4,0,0,0-.17,1Z" transform="translate(-197.5 -71.5)"/><path d="M1107,1194.61c0,5-3.47,7.2-6.75,7.2-3.67,0-6.5-2.69-6.5-7,0-4.54,3-7.2,6.72-7.2S1107,1190.47,1107,1194.61Zm-10.75.14c0,3,1.71,5.21,4.12,5.21s4.12-2.21,4.12-5.26c0-2.3-1.15-5.21-4.06-5.21S1096.21,1192.18,1096.21,1194.75Z" transform="translate(-197.5 -71.5)"/><path d="M1110.07,1181.62h2.46v19.88h-2.46Z" transform="translate(-197.5 -71.5)"/><path d="M1119.43,1184.14a1.53,1.53,0,0,1-3.05,0,1.5,1.5,0,0,1,1.54-1.54A1.46,1.46,0,0,1,1119.43,1184.14Zm-2.74,17.36v-13.55h2.46v13.55Z" transform="translate(-197.5 -71.5)"/><path d="M1132.89,1201a9.08,9.08,0,0,1-3.89.78c-4.09,0-6.75-2.77-6.75-6.92a6.89,6.89,0,0,1,7.28-7.2,8.24,8.24,0,0,1,3.42.7l-.56,1.9a5.71,5.71,0,0,0-2.86-.64c-3.11,0-4.79,2.3-4.79,5.12,0,3.14,2,5.07,4.7,5.07a7,7,0,0,0,3-.67Z" transform="translate(-197.5 -71.5)"/><path d="M1137.18,1187.95l3,8c.31.9.64,2,.87,2.77h.06c.25-.81.53-1.85.87-2.83l2.69-8h2.6l-3.7,9.66c-1.76,4.65-3,7-4.65,8.48a6.66,6.66,0,0,1-3,1.6l-.62-2.07a6.52,6.52,0,0,0,2.16-1.2,7.48,7.48,0,0,0,2.07-2.74,1.77,1.77,0,0,0,.2-.59,2.16,2.16,0,0,0-.17-.64l-5-12.49Z" transform="translate(-197.5 -71.5)"/><path d="M1155.07,1199a6.46,6.46,0,0,0,3.25,1c1.79,0,2.63-.9,2.63-2s-.7-1.82-2.52-2.49c-2.44-.87-3.58-2.21-3.58-3.84,0-2.18,1.76-4,4.68-4a6.76,6.76,0,0,1,3.33.84l-.62,1.79a5.28,5.28,0,0,0-2.77-.78c-1.46,0-2.27.84-2.27,1.85s.81,1.62,2.58,2.3c2.35.9,3.56,2.07,3.56,4.09,0,2.38-1.85,4.06-5.07,4.06a7.73,7.73,0,0,1-3.81-.92Z" transform="translate(-197.5 -71.5)"/><path d="M1166.49,1192.37c0-1.74-.06-3.14-.11-4.42h2.21l.11,2.32h.06a5.33,5.33,0,0,1,4.82-2.63c3.28,0,5.74,2.77,5.74,6.89,0,4.87-3,7.28-6.16,7.28a4.75,4.75,0,0,1-4.17-2.13h-.06V1207h-2.44Zm2.44,3.61a5.59,5.59,0,0,0,.11,1,3.8,3.8,0,0,0,3.7,2.88c2.6,0,4.12-2.13,4.12-5.24,0-2.72-1.43-5-4-5a3.93,3.93,0,0,0-3.72,3.05,4,4,0,0,0-.17,1Z" transform="translate(-197.5 -71.5)"/><path d="M1183.8,1195.17c.06,3.33,2.18,4.7,4.65,4.7a8.9,8.9,0,0,0,3.75-.7l.42,1.76a11,11,0,0,1-4.51.84c-4.17,0-6.66-2.74-6.66-6.83s2.41-7.31,6.36-7.31c4.42,0,5.6,3.89,5.6,6.38a9.32,9.32,0,0,1-.08,1.15Zm7.22-1.76c0-1.57-.64-4-3.42-4-2.49,0-3.58,2.3-3.78,4Z" transform="translate(-197.5 -71.5)"/><path d="M1206.11,1201a9.08,9.08,0,0,1-3.89.78c-4.09,0-6.75-2.77-6.75-6.92a6.89,6.89,0,0,1,7.28-7.2,8.24,8.24,0,0,1,3.42.7l-.56,1.9a5.72,5.72,0,0,0-2.86-.64c-3.11,0-4.79,2.3-4.79,5.12,0,3.14,2,5.07,4.7,5.07a7,7,0,0,0,3-.67Z" transform="translate(-197.5 -71.5)"/></g><g id="ArrorwPolicySpecNPC-3" data-name="ArrorwPolicySpecNPC"><g id="ArrorwPolicySpecNPC-4" data-name="ArrorwPolicySpecNPC"><line class="cls-3" x1="333.5" y1="855.5" x2="762.44" y2="1095.7"/><path d="M981,1179c-12-1.87-27.78-2.48-39.13-.11l15.3-13.24,3.29-20C964.36,1156.61,973.15,1169.78,981,1179Z" transform="translate(-197.5 -71.5)"/></g></g><g id="ArrowFluxClusterAgent-2" data-name="ArrowFluxClusterAgent"><g id="ArrowFluxClusterAgent-3" data-name="ArrowFluxClusterAgent"><line class="cls-4" x1="1674.5" y1="684.5" x2="1674.5" y2="774.39"/><path d="M1872,864c-3.16-8.52-8.55-19.09-14.27-25.64l14.27,5.16,14.26-5.16C1880.55,844.91,1875.16,855.48,1872,864Z" transform="translate(-197.5 -71.5)"/></g></g><g id="ArrowFluxVCS-3" data-name="ArrowFluxVCS"><g id="ArrowFluxVCS-4" data-name="ArrowFluxVCS"><line class="cls-3" x1="1257.08" y1="696.2" x2="1026.5" y2="1080.5"/><path d="M1467,747c-9.46,7.57-22.88,16-33.9,19.53l19.85,3.89,12.77,15.69C1463.68,774.69,1464.77,758.91,1467,747Z" transform="translate(-197.5 -71.5)"/></g></g><g id="ArrowNetPrometheus"><g id="ArrowNetPrometheus-2" data-name="ArrowNetPrometheus"><line class="cls-3" x1="2088.5" y1="267.64" x2="2088.5" y2="288.5"/><path d="M2286,315c-4.21,11.36-11.41,25.45-19,34.19l19-6.88,19,6.88C2297.4,340.45,2290.21,326.36,2286,315Z" transform="translate(-197.5 -71.5)"/></g></g><g id="DeveloperApp"><rect class="cls-1" x="34.54" y="594.5" width="105.9" height="70.6"/><rect class="cls-1" x="38.95" y="598.91" width="105.9" height="70.6"/><rect class="cls-1" x="43.37" y="603.32" width="105.9" height="70.6"/><rect class="cls-1" x="47.78" y="607.74" width="105.9" height="70.6"/><rect class="cls-1" x="52.19" y="612.15" width="105.9" height="70.6"/><rect class="cls-1" x="56.6" y="616.56" width="105.9" height="70.6"/><path d="M290,726.47l-1.89,5.72h-2.43L291.84,714h2.83l6.2,18.17h-2.51l-1.94-5.72Zm6-1.83-1.78-5.23c-.4-1.19-.67-2.26-.94-3.32h-.05c-.27,1.08-.57,2.18-.92,3.29l-1.78,5.26Z" transform="translate(-197.5 -71.5)"/><path d="M303.38,723.4c0-1.67-.05-3-.11-4.26h2.13l.11,2.24h.05a5.13,5.13,0,0,1,4.64-2.53c3.15,0,5.53,2.67,5.53,6.63,0,4.69-2.86,7-5.93,7a4.58,4.58,0,0,1-4-2h-.05v7.09h-2.35Zm2.35,3.48a5.32,5.32,0,0,0,.11,1,3.66,3.66,0,0,0,3.56,2.78c2.51,0,4-2,4-5,0-2.62-1.37-4.85-3.88-4.85a3.79,3.79,0,0,0-3.59,2.94,3.86,3.86,0,0,0-.16,1Z" transform="translate(-197.5 -71.5)"/><path d="M318.72,723.4c0-1.67-.05-3-.11-4.26h2.13l.11,2.24h.05a5.13,5.13,0,0,1,4.64-2.53c3.15,0,5.53,2.67,5.53,6.63,0,4.69-2.86,7-5.93,7a4.58,4.58,0,0,1-4-2h-.05v7.09h-2.35Zm2.35,3.48a5.32,5.32,0,0,0,.11,1,3.66,3.66,0,0,0,3.56,2.78c2.51,0,4-2,4-5,0-2.62-1.37-4.85-3.88-4.85a3.79,3.79,0,0,0-3.59,2.94,3.86,3.86,0,0,0-.16,1Z" transform="translate(-197.5 -71.5)"/></g><g id="WeaveCloud-2" data-name="WeaveCloud"><rect id="WeaveCloud-3" data-name="WeaveCloud" class="cls-1" x="252.5" y="0.5" width="612" height="90"/><path d="M616.3,135l-9.4-37.07H612l4.4,18.75c1.1,4.62,2.09,9.24,2.75,12.81h.11c.6-3.68,1.76-8.08,3-12.87l4.95-18.7h5l4.51,18.81c1,4.4,2,8.8,2.58,12.7h.11c.77-4.07,1.81-8.19,3-12.81l4.89-18.7h4.89L641.65,135h-5L632,115.7a111.67,111.67,0,0,1-2.42-12.1h-.11a115.85,115.85,0,0,1-2.86,12.1L621.3,135Z" transform="translate(-197.5 -71.5)"/><path d="M657.5,122.57c.11,6.54,4.29,9.24,9.13,9.24a17.51,17.51,0,0,0,7.37-1.37l.82,3.46a21.56,21.56,0,0,1-8.85,1.65c-8.19,0-13.09-5.39-13.09-13.42s4.73-14.35,12.48-14.35c8.69,0,11,7.64,11,12.54a18.29,18.29,0,0,1-.17,2.25Zm14.19-3.46c.05-3.08-1.27-7.86-6.71-7.86-4.89,0-7,4.51-7.42,7.86Z" transform="translate(-197.5 -71.5)"/><path d="M697.09,135l-.38-3.35h-.17a9.91,9.91,0,0,1-8.14,4c-5.39,0-8.14-3.79-8.14-7.64,0-6.43,5.72-10,16-9.9v-.55c0-2.2-.6-6.16-6-6.16a13.26,13.26,0,0,0-6.93,2l-1.1-3.19a16.52,16.52,0,0,1,8.74-2.37c8.14,0,10.12,5.55,10.12,10.89v10a37.46,37.46,0,0,0,.44,6.38Zm-.71-13.58c-5.28-.11-11.27.83-11.27,6a4.28,4.28,0,0,0,4.56,4.62,6.62,6.62,0,0,0,6.43-4.45,5.05,5.05,0,0,0,.27-1.54Z" transform="translate(-197.5 -71.5)"/><path d="M710.3,108.38l5.22,15a68.6,68.6,0,0,1,2.15,6.82h.17c.6-2.2,1.37-4.4,2.25-6.82l5.17-15h5.06L719.86,135h-4.62l-10.12-26.62Z" transform="translate(-197.5 -71.5)"/><path d="M737,122.57c.11,6.54,4.29,9.24,9.13,9.24a17.51,17.51,0,0,0,7.37-1.37l.82,3.46a21.56,21.56,0,0,1-8.85,1.65c-8.19,0-13.09-5.39-13.09-13.42s4.73-14.35,12.48-14.35c8.69,0,11,7.64,11,12.54a18.29,18.29,0,0,1-.17,2.25Zm14.19-3.46c.06-3.08-1.26-7.86-6.71-7.86-4.89,0-7,4.51-7.42,7.86Z" transform="translate(-197.5 -71.5)"/><path d="M799.61,133.79a23.75,23.75,0,0,1-9.79,1.76c-10.45,0-18.31-6.6-18.31-18.75,0-11.6,7.86-19.47,19.36-19.47a19.88,19.88,0,0,1,8.8,1.65l-1.15,3.91a17.41,17.41,0,0,0-7.48-1.54c-8.69,0-14.46,5.55-14.46,15.29,0,9.07,5.22,14.9,14.24,14.9a19.16,19.16,0,0,0,7.81-1.54Z" transform="translate(-197.5 -71.5)"/><path d="M805.44,96h4.84v39h-4.84Z" transform="translate(-197.5 -71.5)"/><path d="M842.51,121.47c0,9.84-6.82,14.13-13.25,14.13-7.2,0-12.76-5.28-12.76-13.69,0-8.91,5.83-14.13,13.2-14.13C837.34,107.78,842.51,113.33,842.51,121.47Zm-21.12.28c0,5.83,3.35,10.23,8.08,10.23s8.08-4.34,8.08-10.34c0-4.51-2.25-10.23-8-10.23S821.39,116.69,821.39,121.75Z" transform="translate(-197.5 -71.5)"/><path d="M870.89,127.74c0,2.75.05,5.17.22,7.26h-4.29l-.27-4.34h-.11a10,10,0,0,1-8.8,4.95c-4.18,0-9.18-2.31-9.18-11.66V108.38h4.84v14.74c0,5.06,1.54,8.47,5.94,8.47a7,7,0,0,0,6.38-4.4,7.08,7.08,0,0,0,.44-2.47V108.38h4.84Z" transform="translate(-197.5 -71.5)"/><path d="M901.91,96v32.17c0,2.36.06,5.06.22,6.87h-4.34l-.22-4.62h-.11a9.84,9.84,0,0,1-9.07,5.22c-6.43,0-11.38-5.44-11.38-13.53-.06-8.85,5.44-14.3,11.93-14.3,4.07,0,6.82,1.92,8,4.07h.11V96Zm-4.84,23.26a8.54,8.54,0,0,0-.22-2,7.12,7.12,0,0,0-7-5.61c-5,0-8,4.4-8,10.28,0,5.39,2.64,9.84,7.86,9.84a7.27,7.27,0,0,0,7.09-5.77,8.39,8.39,0,0,0,.22-2.09Z" transform="translate(-197.5 -71.5)"/></g></svg>