<svg id="Layer_1" data-name="Layer 1" xmlns="http://www.w3.org/2000/svg" viewBox="0 0 2449 1108"><title>diagram</title><g id="Dev"><rect x="144.5" y="504.5" width="432" height="459" style="fill:none;stroke:#000;stroke-miterlimit:10"/><text transform="translate(189.5 549.5)" style="font-size:45px;font-family:MyriadPro-Regular, Myriad Pro">de<tspan x="47.92" y="0" style="letter-spacing:-0.009993489583333333em">v</tspan><tspan x="69.12" y="0">elope</tspan><tspan x="175.14" y="0" style="letter-spacing:0.030002170138888888em">r</tspan><tspan x="191.2" y="0" style="letter-spacing:-0.0719943576388889em">’</tspan><tspan x="197.28" y="0">s lap</tspan><tspan x="282.55" y="0" style="letter-spacing:-0.005989583333333334em">t</tspan><tspan x="297.17" y="0">op</tspan></text></g><g id="CDP"><rect x="648.5" y="486.5" width="1386" height="252" rx="31.06" ry="31.06" style="fill:none;stroke:#000;stroke-miterlimit:10"/><text transform="translate(693.5 549.5)" style="font-size:45px;font-family:MyriadPro-Regular, Myriad Pro"><tspan style="letter-spacing:-0.006000434027777778em">c</tspan><tspan x="19.89" y="0">o</tspan><tspan x="44.59" y="0" style="letter-spacing:-0.003993055555555555em">n</tspan><tspan x="69.39" y="0">tinuous deli</tspan><tspan x="290.52" y="0" style="letter-spacing:-0.009993489583333333em">v</tspan><tspan x="311.71" y="0">e</tspan><tspan x="334.26" y="0" style="letter-spacing:0.025em">r</tspan><tspan x="350.1" y="0">y pipeline</tspan></text></g><g id="CI"><rect x="693.5" y="612.5" width="81" height="72" style="fill:none;stroke:#000;stroke-miterlimit:10"/><text transform="translate(711.5 666.5)" style="font-size:55px;font-family:MyriadPro-Regular, Myriad Pro">CI</text></g><g id="CR"><rect x="846.5" y="612.5" width="396" height="72" style="fill:none;stroke:#000;stroke-miterlimit:10"/><text transform="translate(869 666.5)" style="font-size:55px;font-family:MyriadPro-Regular, Myriad Pro"><tspan style="letter-spacing:0.003995028409090909em">D</tspan><tspan x="36.85" y="0">ocker </tspan><tspan x="174.68" y="0" style="letter-spacing:-0.009996448863636364em">r</tspan><tspan x="192.11" y="0">e</tspan><tspan x="219.67" y="0" style="letter-spacing:-0.0060014204545454555em">g</tspan><tspan x="250.08" y="0">ist</tspan><tspan x="302.94" y="0" style="letter-spacing:0.024991122159090908em">r</tspan><tspan x="322.29" y="0">y</tspan></text></g><g id="WeaveFlux"><text transform="translate(1337.6 576.5)" style="font-size:55px;font-family:MyriadPro-Regular, Myriad Pro"><tspan style="letter-spacing:-0.03299005681818182em">W</tspan><tspan x="44.72" y="0" style="letter-spacing:-0.000008877840909090909em">e</tspan><tspan x="72.27" y="0" style="letter-spacing:-0.007990056818181818em">a</tspan><tspan x="98.34" y="0" style="letter-spacing:-0.009996448863636364em">v</tspan><tspan x="124.24" y="0">e</tspan><tspan x="28.6" y="66" style="letter-spacing:-0.017001065340909092em">F</tspan><tspan x="54.45" y="66">lux</tspan></text><rect x="1323.5" y="513.5" width="189" height="171" style="fill:none;stroke:#000;stroke-miterlimit:10"/></g><line x1="405.5" y1="828.5" x2="895.48" y2="983.23" style="fill:none;stroke:#000;stroke-miterlimit:10;stroke-width:4px"/><path d="M990,1062c-12.1.6-27.71,3.21-38.33,7.84L964,1053.78l-.83-20.21C969.16,1043.46,980.44,1054.56,990,1062Z" transform="translate(-71.5 -71.5)"/><line x1="754.44" y1="702.63" x2="999.5" y2="981.5" style="fill:none;stroke:#000;stroke-miterlimit:10;stroke-width:4px"/><path d="M810,756c4.33,11.31,8.23,26.65,8.28,38.24L828,776.51l18.83-7.39C835.37,767.59,820.66,761.75,810,756Z" transform="translate(-71.5 -71.5)"/><line x1="1071.49" y1="965.4" x2="1395.5" y2="675.5" style="fill:none;stroke:#000;stroke-miterlimit:10;stroke-width:4px"/><path d="M1125,1053c11.28-4.43,26.57-8.47,38.16-8.62l-17.81-9.59L1137.8,1016C1136.37,1027.53,1130.66,1042.29,1125,1053Z" transform="translate(-71.5 -71.5)"/><line x1="1242.5" y1="648.5" x2="1323.39" y2="648.5" style="fill:none;stroke:#000;stroke-miterlimit:10;stroke-width:3px"/><path d="M1413,720c-8.52,3.16-19.09,8.55-25.64,14.27l5.16-14.27-5.16-14.26C1393.91,711.45,1404.48,716.84,1413,720Z" transform="translate(-71.5 -71.5)"/><line x1="774.5" y1="648.5" x2="846.39" y2="648.5" style="fill:none;stroke:#000;stroke-miterlimit:10;stroke-width:3px"/><path d="M936,720c-8.52,3.16-19.09,8.55-25.64,14.27L915.52,720l-5.16-14.26C916.91,711.45,927.48,716.84,936,720Z" transform="translate(-71.5 -71.5)"/><g id="VCS"><rect x="900.5" y="963.5" width="270" height="144" rx="37.21" ry="37.21" style="fill:none;stroke:#000;stroke-miterlimit:10"/><text transform="translate(990.5 1053.5)" style="font-size:55px;font-family:MyriadPro-Regular, Myriad Pro">VCS</text></g><g id="DevDockerForMac"><rect x="216.5" y="576.5" width="216" height="63" style="fill:none;stroke:#000;stroke-miterlimit:10"/><text transform="translate(234.5 621.5)" style="font-size:28px;font-family:MyriadPro-Regular, Myriad Pro"><tspan style="letter-spacing:0.004010881696428571em">D</tspan><tspan x="18.76" y="0" style="letter-spacing:-0.00001743861607142857em">ocker </tspan><tspan x="88.93" y="0" style="letter-spacing:-0.012991768973214286em">f</tspan><tspan x="96.74" y="0">or </tspan><tspan x="127.2" y="0" style="letter-spacing:0.005998883928571429em">M</tspan><tspan x="149.88" y="0">ac</tspan></text></g><g id="DevScopeProbe"><rect x="216.5" y="648.5" width="216" height="63" style="fill:none;stroke:#000;stroke-miterlimit:10"/><text transform="translate(234.5 693.5)" style="font-size:28px;font-family:MyriadPro-Regular, Myriad Pro"><tspan style="letter-spacing:0.005998883928571429em">S</tspan><tspan x="13.97" y="0" style="letter-spacing:-0.005998883928571429em">c</tspan><tspan x="26.35" y="0">ope p</tspan><tspan x="93.55" y="0" style="letter-spacing:-0.009992327008928572em">r</tspan><tspan x="102.42" y="0">obe</tspan></text></g><g id="DevAppCode"><rect x="216.5" y="797" width="216" height="63" style="fill:none;stroke:#000;stroke-miterlimit:10"/><text transform="translate(234.5 842)" style="font-size:28px;font-family:MyriadPro-Regular, Myriad Pro"><tspan style="letter-spacing:-0.0029820033482142855em">A</tspan><tspan x="17.05" y="0">pp </tspan><tspan x="54.85" y="0" style="letter-spacing:-0.005998883928571429em">c</tspan><tspan x="67.23" y="0">ode</tspan></text></g><g id="DevPolicySpec"><rect x="216.5" y="873.5" width="216" height="63" style="fill:none;stroke:#000;stroke-miterlimit:10"/><text transform="translate(234.5 923)" style="font-size:28px;font-family:MyriadPro-Regular, Myriad Pro;letter-spacing:-0.024989536830357144em">P<tspan x="14.2" y="0" style="letter-spacing:-0.00001743861607142857em">oli</tspan><tspan x="42.73" y="0" style="letter-spacing:0.017996651785714284em">c</tspan><tspan x="55.78" y="0" style="letter-spacing:-0.00001743861607142857em">y spec</tspan></text></g><line x1="405.5" y1="909.5" x2="2011.3" y2="448.17" style="fill:none;stroke:#000;stroke-miterlimit:10;stroke-width:4px"/><path d="M2106,513c-9.75,7.19-21.31,18-27.61,27.72l1.36-20.18-11.87-16.38C2078.39,509.07,2093.92,512.09,2106,513Z" transform="translate(-71.5 -71.5)"/><g id="KubernetesCluster"><text transform="translate(1602.5 54.5)" style="font-size:55px;font-family:MyriadPro-Regular, Myriad Pro"><tspan style="letter-spacing:-0.005992542613636364em">K</tspan><tspan x="29.48" y="0">ube</tspan><tspan x="118.63" y="0" style="letter-spacing:0.003995028409090909em">r</tspan><tspan x="136.84" y="0">ne</tspan><tspan x="194.92" y="0" style="letter-spacing:-0.005992542613636364em">t</tspan><tspan x="212.79" y="0" style="letter-spacing:-0.000008877840909090909em">es</tspan></text><rect x="1584.5" y="0.5" width="864" height="864" style="fill:none;stroke:#000;stroke-miterlimit:10"/></g><g id="WeaveCloud"><path d="M72,432V72H1629V432m-284.21,0V936H1629V432M72,432H1344.79" transform="translate(-71.5 -71.5)" style="fill:none;stroke:#000;stroke-miterlimit:10"/><text transform="translate(18.5 54.5)" style="font-size:55px;font-family:MyriadPro-Regular, Myriad Pro"><tspan style="letter-spacing:-0.03299005681818182em">W</tspan><tspan x="44.72" y="0" style="letter-spacing:-0.000008877840909090909em">e</tspan><tspan x="72.27" y="0" style="letter-spacing:-0.007990056818181818em">a</tspan><tspan x="98.34" y="0" style="letter-spacing:-0.009996448863636364em">v</tspan><tspan x="124.24" y="0">e Cloud</tspan></text></g><g id="WeaveFluxAgent"><text transform="translate(1689.47 576.5)" style="font-size:55px;font-family:MyriadPro-Regular, Myriad Pro"><tspan style="letter-spacing:-0.03299005681818182em">W</tspan><tspan x="44.72" y="0" style="letter-spacing:-0.000008877840909090909em">e</tspan><tspan x="72.27" y="0" style="letter-spacing:-0.007990056818181818em">a</tspan><tspan x="98.34" y="0" style="letter-spacing:-0.009996448863636364em">v</tspan><tspan x="124.24" y="0">e </tspan><tspan x="163.46" y="0" style="letter-spacing:-0.017001065340909092em">F</tspan><tspan x="189.31" y="0">lux</tspan><tspan x="62.37" y="66">age</tspan><tspan x="147.18" y="66" style="letter-spacing:-0.003995028409090909em">n</tspan><tspan x="177.48" y="66">t</tspan></text><rect x="1656.5" y="522.5" width="333" height="162" style="fill:none;stroke:#000;stroke-miterlimit:10"/></g><g id="ClusterWeaveScopeProbe"><text transform="translate(1675.37 351.5)" style="font-size:55px;font-family:MyriadPro-Regular, Myriad Pro"><tspan style="letter-spacing:-0.03299005681818182em">W</tspan><tspan x="44.72" y="0" style="letter-spacing:-0.000008877840909090909em">e</tspan><tspan x="72.27" y="0" style="letter-spacing:-0.007990056818181818em">a</tspan><tspan x="98.34" y="0" style="letter-spacing:-0.009996448863636364em">v</tspan><tspan x="124.24" y="0">e </tspan><tspan x="163.46" y="0" style="letter-spacing:0.005992542613636364em">S</tspan><tspan x="190.9" y="0" style="letter-spacing:-0.005992542613636364em">c</tspan><tspan x="215.21" y="0">ope</tspan><tspan x="83.24" y="66">p</tspan><tspan x="114.54" y="66" style="letter-spacing:-0.009996448863636364em">r</tspan><tspan x="131.97" y="66">obe</tspan></text><rect x="1656.5" y="288.5" width="333" height="171" style="fill:none;stroke:#000;stroke-miterlimit:10"/></g><g id="ClusterWeaveNet"><text transform="translate(2055.8 342.5)" style="font-size:55px;font-family:MyriadPro-Regular, Myriad Pro"><tspan style="letter-spacing:-0.03299005681818182em">W</tspan><tspan x="44.72" y="0" style="letter-spacing:-0.000008877840909090909em">e</tspan><tspan x="72.27" y="0" style="letter-spacing:-0.007990056818181818em">a</tspan><tspan x="98.34" y="0" style="letter-spacing:-0.009996448863636364em">v</tspan><tspan x="124.24" y="0">e Net</tspan></text><rect x="2007.5" y="288.5" width="333" height="81" style="fill:none;stroke:#000;stroke-miterlimit:10"/></g><g id="ClusterWeaveNPC"><rect x="2007.5" y="378.5" width="333" height="81" style="fill:none;stroke:#000;stroke-miterlimit:10"/><text transform="translate(2048.1 432.5)" style="font-size:55px;font-family:MyriadPro-Regular, Myriad Pro"><tspan style="letter-spacing:-0.03299005681818182em">W</tspan><tspan x="44.72" y="0" style="letter-spacing:-0.000008877840909090909em">e</tspan><tspan x="72.27" y="0" style="letter-spacing:-0.007990056818181818em">a</tspan><tspan x="98.34" y="0" style="letter-spacing:-0.009996448863636364em">v</tspan><tspan x="124.24" y="0">e NPC</tspan></text></g><g id="ClusterApp"><rect x="2124.5" y="513.5" width="216" height="144" style="fill:#fff;stroke:#000;stroke-miterlimit:10"/><rect x="2133.5" y="522.5" width="216" height="144" style="fill:#fff;stroke:#000;stroke-miterlimit:10"/><rect x="2142.5" y="531.5" width="216" height="144" style="fill:#fff;stroke:#000;stroke-miterlimit:10"/><rect x="2151.5" y="540.5" width="216" height="144" style="fill:#fff;stroke:#000;stroke-miterlimit:10"/><rect x="2160.5" y="549.5" width="216" height="144" style="fill:#fff;stroke:#000;stroke-miterlimit:10"/><rect x="2169.5" y="558.5" width="216" height="144" style="fill:#fff;stroke:#000;stroke-miterlimit:10"/><text transform="translate(2232.5 648.5)" style="font-size:55px;font-family:MyriadPro-Regular, Myriad Pro"><tspan style="letter-spacing:-0.0029918323863636362em">A</tspan><tspan x="33.5" y="0">pp</tspan></text></g><line x1="1512.5" y1="648.5" x2="1647.39" y2="648.5" style="fill:none;stroke:#000;stroke-miterlimit:10;stroke-width:3px"/><path d="M1737,720c-8.52,3.16-19.09,8.55-25.64,14.27l5.16-14.27-5.16-14.26C1717.91,711.45,1728.48,716.84,1737,720Z" transform="translate(-71.5 -71.5)"/><g id="WeaveScope"><text transform="translate(469.1 158)" style="font-size:55px;font-family:MyriadPro-Regular, Myriad Pro"><tspan style="letter-spacing:-0.03299005681818182em">W</tspan><tspan x="44.72" y="0" style="letter-spacing:-0.000008877840909090909em">e</tspan><tspan x="72.27" y="0" style="letter-spacing:-0.007990056818181818em">a</tspan><tspan x="98.34" y="0" style="letter-spacing:-0.009996448863636364em">v</tspan><tspan x="124.24" y="0">e</tspan><tspan x="5.5" y="66" style="letter-spacing:0.0060014204545454555em">S</tspan><tspan x="32.95" y="66" style="letter-spacing:-0.005992542613636364em">c</tspan><tspan x="57.26" y="66">ope</tspan></text><rect x="455" y="95" width="189" height="171" style="fill:none;stroke:#000;stroke-miterlimit:10"/></g><g id="WeavePrism"><text transform="translate(973.1 158)" style="font-size:55px;font-family:MyriadPro-Regular, Myriad Pro"><tspan style="letter-spacing:-0.03299005681818182em">W</tspan><tspan x="44.72" y="0" style="letter-spacing:-0.000008877840909090909em">e</tspan><tspan x="72.27" y="0" style="letter-spacing:-0.007990056818181818em">a</tspan><tspan x="98.34" y="0" style="letter-spacing:-0.009996448863636364em">v</tspan><tspan x="124.24" y="0">e</tspan><tspan x="12.35" y="66" style="letter-spacing:-0.015988991477272726em">P</tspan><tspan x="40.73" y="66" style="letter-spacing:0.003995028409090909em">r</tspan><tspan x="58.93" y="66">ism</tspan></text><rect x="959" y="95" width="189" height="171" style="fill:none;stroke:#000;stroke-miterlimit:10"/></g><line x1="508.11" y1="276.03" x2="414.5" y2="684.5" style="fill:none;stroke:#000;stroke-miterlimit:10;stroke-width:4px"/><path d="M585,324c-6.65,10.13-16.8,22.26-26.18,29.08l20.08-2.46,17,11C590.43,351.36,586.57,336,585,324Z" transform="translate(-71.5 -71.5)"/><line x1="645.39" y1="246.97" x2="1674.5" y2="396.5" style="fill:none;stroke:#000;stroke-miterlimit:10;stroke-width:4px"/><path d="M693,315c10.64,5.8,23.55,14.95,31.1,23.74L720,318.93l9.54-17.83C719.83,307.38,704.85,312.47,693,315Z" transform="translate(-71.5 -71.5)"/><line x1="1148.5" y1="250.84" x2="2196.5" y2="585.5" style="fill:none;stroke:#000;stroke-miterlimit:10;stroke-width:4px"/><path d="M1197,315c9.54,7.47,20.78,18.61,26.78,28.52l-.77-20.22,12.34-16C1224.72,311.88,1209.1,314.44,1197,315Z" transform="translate(-71.5 -71.5)"/></svg>